<svg width="14" height="12" viewBox="0 0 14 12" fill="none" xmlns="http://www.w3.org/2000/svg">
<path d="M10.25 5.70081L1.5 5.70081" stroke="#0C629A" stroke-width="2.5" stroke-linecap="round"/>
<path d="M12.4658 6.59444L12.4658 6.59445L12.4674 6.59288C12.7062 6.3518 12.8408 6.03517 12.8408 5.69293C12.8408 5.35493 12.7067 5.03375 12.4658 4.79484L8.17185 0.536598C7.94361 0.310254 7.60392 0.194612 7.27215 0.275672L7.27213 0.275603L7.26642 0.277142C6.40448 0.509467 6.20976 1.47729 6.75062 2.01366L6.7507 2.01374L10.4624 5.69125L6.73332 9.38935C6.19341 9.92476 6.38577 10.8976 7.25027 11.1262L7.25071 11.1263C7.58158 11.2131 7.92642 11.0961 8.15455 10.8698L12.4658 6.59444Z" fill="#0C629A" stroke="#0C629A" stroke-width="0.5"/>
</svg>
