<svg width="21" height="12" viewBox="0 0 21 12" fill="none" xmlns="http://www.w3.org/2000/svg">
<path d="M10.5191 12C9.96511 12 9.45265 11.7822 9.05791 11.3887L0.429045 2.63363C0.0827824 2.28231 -0.0834236 1.76234 0.0412308 1.28454C0.401343 -0.0856359 1.89027 -0.359671 2.70053 0.462433L10.3668 8.2408C10.4499 8.32512 10.5953 8.32512 10.6784 8.2408L18.3031 0.497563C19.1134 -0.324541 20.5954 -0.0505068 20.9624 1.31967C21.0801 1.8045 20.9139 2.31743 20.5677 2.66876L11.9734 11.3887C11.5856 11.7822 11.0662 12 10.5191 12Z" fill="#0C629A"/>
<path d="M10.5191 12C9.96511 12 9.45265 11.7822 9.05791 11.3887L0.429045 2.63363C0.0827824 2.28231 -0.0834236 1.76234 0.0412308 1.28454C0.401343 -0.0856359 1.89027 -0.359671 2.70053 0.462433L10.3668 8.2408C10.4499 8.32512 10.5953 8.32512 10.6784 8.2408L18.3031 0.497563C19.1134 -0.324541 20.5954 -0.0505068 20.9624 1.31967C21.0801 1.8045 20.9139 2.31743 20.5677 2.66876L11.9734 11.3887C11.5856 11.7822 11.0662 12 10.5191 12Z" stroke="#0C629A"/>
</svg>
