<svg width="25" height="25" viewBox="0 0 25 25" fill="none" xmlns="http://www.w3.org/2000/svg">
<rect x="1.5" y="1.5" width="22" height="22" rx="11" stroke="#0C629A" stroke-width="3"/>
<path d="M16.25 12.7009L7.5 12.7009" stroke="#0C629A" stroke-width="2.5" stroke-linecap="round"/>
<path d="M18.4663 13.5945L18.4663 13.5945L18.4678 13.5929C18.7067 13.3519 18.8413 13.0352 18.8413 12.693C18.8413 12.355 18.7072 12.0338 18.4663 11.7949L14.1723 7.53666C13.9441 7.31032 13.6044 7.19467 13.2726 7.27573L13.2726 7.27566L13.2669 7.2772C12.405 7.50953 12.2102 8.47736 12.7511 9.01372L12.7512 9.0138L16.4629 12.6913L12.7338 16.3894C12.1939 16.9248 12.3863 17.8976 13.2508 18.1262L13.2512 18.1263C13.5821 18.2132 13.9269 18.0961 14.155 17.8699L18.4663 13.5945Z" fill="#0C629A" stroke="#0C629A" stroke-width="0.5"/>
</svg>
