<svg width="14" height="12" viewBox="0 0 14 12" fill="none" xmlns="http://www.w3.org/2000/svg">
<path d="M10.2502 5.70087L1.50024 5.70087" stroke="#F0AD4E" stroke-width="2.5" stroke-linecap="round"/>
<path d="M12.4663 6.5945L12.4663 6.59451L12.4678 6.59294C12.7067 6.35186 12.8413 6.03523 12.8413 5.69299C12.8413 5.35499 12.7072 5.03381 12.4663 4.7949L8.17234 0.536659C7.9441 0.310315 7.60441 0.194673 7.27263 0.275733L7.27262 0.275664L7.26691 0.277204C6.40496 0.509528 6.21025 1.47736 6.75111 2.01372L6.75119 2.0138L10.4629 5.69132L6.73381 9.38941C6.1939 9.92482 6.38626 10.8976 7.25076 11.1262L7.2512 11.1263C7.58207 11.2132 7.92691 11.0961 8.15504 10.8699L12.4663 6.5945Z" fill="#F0AD4E" stroke="#F0AD4E" stroke-width="0.5"/>
</svg>
