<svg width="18" height="30" viewBox="0 0 18 30" fill="none" xmlns="http://www.w3.org/2000/svg">
<path d="M17.7371 14.9727C17.7371 15.7641 17.4218 16.4962 16.8523 17.0601L4.18049 29.3871C3.67199 29.8817 2.91941 30.1192 2.22785 29.9411C0.244706 29.4267 -0.151924 27.2996 1.03796 26.1421L12.2961 15.1903C12.4182 15.0716 12.4182 14.8638 12.2961 14.7451L1.08881 3.8527C-0.101075 2.69519 0.295554 0.578049 2.2787 0.0537089C2.98043 -0.114475 3.72284 0.122959 4.23134 0.617618L16.8523 12.8951C17.4218 13.4491 17.7371 14.1911 17.7371 14.9727Z" fill="#72808A"/>
<path d="M17.7371 14.9727C17.7371 15.7641 17.4218 16.4962 16.8523 17.0601L4.18049 29.3871C3.67199 29.8817 2.91941 30.1192 2.22785 29.9411C0.244706 29.4267 -0.151924 27.2996 1.03796 26.1421L12.2961 15.1903C12.4182 15.0716 12.4182 14.8638 12.2961 14.7451L1.08881 3.8527C-0.101075 2.69519 0.295554 0.578049 2.2787 0.0537089C2.98043 -0.114475 3.72284 0.122959 4.23134 0.617618L16.8523 12.8951C17.4218 13.4491 17.7371 14.1911 17.7371 14.9727Z" stroke="#72808A"/>
</svg>
