<svg width="38" height="44" viewBox="0 0 38 44" fill="none" xmlns="http://www.w3.org/2000/svg">
<g clip-path="url(#clip0_1995_3055)">
<path d="M0.167191 29.2313C-0.0580807 29.1578 -0.0555496 28.8388 0.170567 28.7687C3.24169 27.8166 7.42061 26.7413 10.1863 23.9744C12.9461 21.2134 13.8506 17.2159 14.7744 14.1722C14.8436 13.9426 15.1685 13.9426 15.2393 14.1722C16.1708 17.21 17.1267 21.1679 19.8865 23.9288C22.6488 26.6923 26.7679 27.8073 29.8297 28.7645C30.0584 28.8362 30.0567 29.1595 29.8272 29.2296C26.7535 30.1598 22.556 31.1009 19.7945 33.8635C17.0331 36.6262 16.1564 40.7621 15.236 43.827C15.1668 44.0565 14.8445 44.0599 14.7719 43.832C13.8177 40.8271 12.7183 37.0854 9.95682 34.3236C7.19112 31.5567 3.20879 30.2239 0.167191 29.233V29.2313Z" fill="#F0AD4E"/>
</g>
<path d="M23.0838 7.61537C22.9712 7.57865 22.9724 7.41913 23.0855 7.3841C24.621 6.90806 26.7104 6.3704 28.0932 4.98702C29.4731 3.60659 29.9253 1.6079 30.3873 0.0860923C30.4219 -0.0286974 30.5843 -0.0286974 30.6197 0.0860923C31.0854 1.60495 31.5634 3.5838 32.9432 4.96423C34.3244 6.34593 36.3838 6.90342 37.9147 7.38199C38.0291 7.41786 38.0282 7.57949 37.9135 7.61452C36.3767 8.07959 34.278 8.55014 32.8973 9.93142C31.5166 11.3127 31.0782 13.3806 30.618 14.913C30.5834 15.0277 30.4223 15.0294 30.386 14.9155C29.9089 13.4131 29.3592 11.5423 27.9785 10.1614C26.5957 8.77803 24.6046 8.11166 23.0838 7.61621V7.61537Z" fill="#F0AD4E"/>
<defs>
<clipPath id="clip0_1995_3055">
<rect width="30" height="30" fill="white" transform="matrix(-1 0 0 1 30 14)"/>
</clipPath>
</defs>
</svg>
