<svg width="47" height="61" viewBox="0 0 47 61" fill="none" xmlns="http://www.w3.org/2000/svg">
<g clip-path="url(#clip0_1988_51)">
<path d="M10.2061 41.9627C9.92831 41.8686 9.93143 41.4594 10.2103 41.3696C13.998 40.1487 19.152 38.7697 22.5631 35.2217C25.9668 31.6813 27.0823 26.5552 28.2218 22.6522C28.3071 22.3578 28.7077 22.3578 28.7951 22.6522C29.9439 26.5476 31.1229 31.6229 34.5266 35.1633C37.9335 38.707 43.0136 40.1368 46.7899 41.3642C47.0719 41.4562 47.0698 41.8707 46.7868 41.9606C42.9959 43.1533 37.819 44.3602 34.4132 47.9028C31.0074 51.4454 29.9262 56.749 28.7909 60.679C28.7056 60.9734 28.3081 60.9778 28.2186 60.6855C27.0417 56.8323 25.6858 52.0342 22.28 48.4927C18.869 44.9447 13.9574 43.2356 10.2061 41.9649L10.2061 41.9627Z" fill="#F0AD4E"/>
</g>
<path d="M0.122896 12.2102C-0.0422994 12.1542 -0.0404416 11.911 0.125372 11.8576C2.37748 11.1316 5.44196 10.3118 7.4701 8.20221C9.4939 6.09717 10.1572 3.04933 10.8347 0.728694C10.8854 0.553649 11.1236 0.553649 11.1756 0.728694C11.8586 3.04482 12.5596 6.06241 14.5834 8.16746C16.6091 10.2744 19.6296 11.1246 21.8749 11.8543C22.0426 11.909 22.0414 12.1555 21.8731 12.2089C19.6191 12.9181 16.541 13.6357 14.516 15.742C12.4909 17.8483 11.8481 21.0017 11.1731 23.3384C11.1223 23.5135 10.886 23.5161 10.8328 23.3423C10.133 21.0513 9.32685 18.1984 7.30181 16.0927C5.27367 13.9832 2.35335 12.967 0.122896 12.2115L0.122896 12.2102Z" fill="#F0AD4E"/>
<defs>
<clipPath id="clip0_1988_51">
<rect width="37" height="38.4695" fill="white" transform="matrix(-1 -1.8179e-07 -1.68166e-07 1 47 22.4314)"/>
</clipPath>
</defs>
</svg>
