<svg width="167" height="18" viewBox="0 0 167 18" fill="none" xmlns="http://www.w3.org/2000/svg">
<path d="M10.3203 6C9.61719 6 6.55859 6.07031 4.625 9.02344V6C4.625 4.13672 3.11328 2.625 1.25 2.625C0.617188 2.625 0.125 3.15234 0.125 3.75C0.125 4.38281 0.617188 4.875 1.25 4.875C1.84766 4.875 2.375 5.40234 2.375 6V15C2.375 16.2656 3.35938 17.25 4.625 17.25H10.8125C11.0938 17.25 11.375 17.0039 11.375 16.7227V16.125C11.375 15.5273 10.8477 15 10.25 15H9.125L13.625 11.625V16.6875C13.625 17.0039 13.8711 17.25 14.1875 17.25H15.3125C15.5938 17.25 15.875 17.0039 15.875 16.6875V9.44531C15.4883 9.55078 15.1367 9.62109 14.75 9.62109C12.5703 9.62109 10.7422 8.07422 10.3203 6ZM15.875 2.625H13.625L11.375 0.375V5.12109C11.375 6.98438 12.8867 8.46094 14.75 8.46094C16.6133 8.46094 18.125 6.98438 18.125 5.12109V0.375L15.875 2.625ZM13.3438 5.4375C13.0273 5.4375 12.7812 5.19141 12.7812 4.875C12.7812 4.59375 13.0273 4.3125 13.3438 4.3125C13.625 4.3125 13.9062 4.59375 13.9062 4.875C13.9062 5.19141 13.625 5.4375 13.3438 5.4375ZM16.1562 5.4375C15.8398 5.4375 15.5938 5.19141 15.5938 4.875C15.5938 4.59375 15.8398 4.3125 16.1562 4.3125C16.4375 4.3125 16.7188 4.59375 16.7188 4.875C16.7188 5.19141 16.4375 5.4375 16.1562 5.4375Z" fill="#B40140"/>
<path d="M39.7377 6.09C39.3897 5.358 38.8857 4.794 38.2257 4.398C37.5657 3.99 36.7977 3.786 35.9217 3.786C35.0457 3.786 34.2537 3.99 33.5457 4.398C32.8497 4.794 32.2977 5.37 31.8897 6.126C31.4937 6.87 31.2957 7.734 31.2957 8.718C31.2957 9.702 31.4937 10.566 31.8897 11.31C32.2977 12.054 32.8497 12.63 33.5457 13.038C34.2537 13.434 35.0457 13.632 35.9217 13.632C37.1457 13.632 38.1537 13.266 38.9457 12.534C39.7377 11.802 40.1997 10.812 40.3317 9.564H35.3277V8.232H42.0777V9.492C41.9817 10.524 41.6577 11.472 41.1057 12.336C40.5537 13.188 39.8277 13.866 38.9277 14.37C38.0277 14.862 37.0257 15.108 35.9217 15.108C34.7577 15.108 33.6957 14.838 32.7357 14.298C31.7757 13.746 31.0137 12.984 30.4497 12.012C29.8977 11.04 29.6217 9.942 29.6217 8.718C29.6217 7.494 29.8977 6.396 30.4497 5.424C31.0137 4.44 31.7757 3.678 32.7357 3.138C33.6957 2.586 34.7577 2.31 35.9217 2.31C37.2537 2.31 38.4297 2.64 39.4497 3.3C40.4817 3.96 41.2317 4.89 41.6997 6.09H39.7377ZM48.5454 15.162C47.6214 15.162 46.7814 14.952 46.0254 14.532C45.2814 14.112 44.6934 13.518 44.2614 12.75C43.8414 11.97 43.6314 11.07 43.6314 10.05C43.6314 9.042 43.8474 8.154 44.2794 7.386C44.7234 6.606 45.3234 6.012 46.0794 5.604C46.8354 5.184 47.6814 4.974 48.6174 4.974C49.5534 4.974 50.3994 5.184 51.1554 5.604C51.9114 6.012 52.5054 6.6 52.9374 7.368C53.3814 8.136 53.6034 9.03 53.6034 10.05C53.6034 11.07 53.3754 11.97 52.9194 12.75C52.4754 13.518 51.8694 14.112 51.1014 14.532C50.3334 14.952 49.4814 15.162 48.5454 15.162ZM48.5454 13.722C49.1334 13.722 49.6854 13.584 50.2014 13.308C50.7174 13.032 51.1314 12.618 51.4434 12.066C51.7674 11.514 51.9294 10.842 51.9294 10.05C51.9294 9.258 51.7734 8.586 51.4614 8.034C51.1494 7.482 50.7414 7.074 50.2374 6.81C49.7334 6.534 49.1874 6.396 48.5994 6.396C47.9994 6.396 47.4474 6.534 46.9434 6.81C46.4514 7.074 46.0554 7.482 45.7554 8.034C45.4554 8.586 45.3054 9.258 45.3054 10.05C45.3054 10.854 45.4494 11.532 45.7374 12.084C46.0374 12.636 46.4334 13.05 46.9254 13.326C47.4174 13.59 47.9574 13.722 48.5454 13.722ZM60.0591 15.162C59.1351 15.162 58.2951 14.952 57.5391 14.532C56.7951 14.112 56.2071 13.518 55.7751 12.75C55.3551 11.97 55.1451 11.07 55.1451 10.05C55.1451 9.042 55.3611 8.154 55.7931 7.386C56.2371 6.606 56.8371 6.012 57.5931 5.604C58.3491 5.184 59.1951 4.974 60.1311 4.974C61.0671 4.974 61.9131 5.184 62.6691 5.604C63.4251 6.012 64.0191 6.6 64.4511 7.368C64.8951 8.136 65.1171 9.03 65.1171 10.05C65.1171 11.07 64.8891 11.97 64.4331 12.75C63.9891 13.518 63.3831 14.112 62.6151 14.532C61.8471 14.952 60.9951 15.162 60.0591 15.162ZM60.0591 13.722C60.6471 13.722 61.1991 13.584 61.7151 13.308C62.2311 13.032 62.6451 12.618 62.9571 12.066C63.2811 11.514 63.4431 10.842 63.4431 10.05C63.4431 9.258 63.2871 8.586 62.9751 8.034C62.6631 7.482 62.2551 7.074 61.7511 6.81C61.2471 6.534 60.7011 6.396 60.1131 6.396C59.5131 6.396 58.9611 6.534 58.4571 6.81C57.9651 7.074 57.5691 7.482 57.2691 8.034C56.9691 8.586 56.8191 9.258 56.8191 10.05C56.8191 10.854 56.9631 11.532 57.2511 12.084C57.5511 12.636 57.9471 13.05 58.4391 13.326C58.9311 13.59 59.4711 13.722 60.0591 13.722ZM66.6588 10.032C66.6588 9.024 66.8628 8.142 67.2708 7.386C67.6788 6.618 68.2368 6.024 68.9448 5.604C69.6648 5.184 70.4688 4.974 71.3568 4.974C72.1248 4.974 72.8388 5.154 73.4988 5.514C74.1588 5.862 74.6628 6.324 75.0108 6.9V1.68H76.6668V15H75.0108V13.146C74.6868 13.734 74.2068 14.22 73.5708 14.604C72.9348 14.976 72.1908 15.162 71.3388 15.162C70.4628 15.162 69.6648 14.946 68.9448 14.514C68.2368 14.082 67.6788 13.476 67.2708 12.696C66.8628 11.916 66.6588 11.028 66.6588 10.032ZM75.0108 10.05C75.0108 9.306 74.8608 8.658 74.5608 8.106C74.2608 7.554 73.8528 7.134 73.3368 6.846C72.8328 6.546 72.2748 6.396 71.6628 6.396C71.0508 6.396 70.4928 6.54 69.9888 6.828C69.4848 7.116 69.0828 7.536 68.7828 8.088C68.4828 8.64 68.3328 9.288 68.3328 10.032C68.3328 10.788 68.4828 11.448 68.7828 12.012C69.0828 12.564 69.4848 12.99 69.9888 13.29C70.4928 13.578 71.0508 13.722 71.6628 13.722C72.2748 13.722 72.8328 13.578 73.3368 13.29C73.8528 12.99 74.2608 12.564 74.5608 12.012C74.8608 11.448 75.0108 10.794 75.0108 10.05ZM97.3737 5.136L94.2957 15H92.6037L90.2277 7.17L87.8517 15H86.1597L83.0637 5.136H84.7377L87.0057 13.416L89.4537 5.136H91.1277L93.5217 13.434L95.7537 5.136H97.3737ZM99.8453 3.534C99.5333 3.534 99.2693 3.426 99.0533 3.21C98.8373 2.994 98.7293 2.73 98.7293 2.418C98.7293 2.106 98.8373 1.842 99.0533 1.626C99.2693 1.41 99.5333 1.302 99.8453 1.302C100.145 1.302 100.397 1.41 100.601 1.626C100.817 1.842 100.925 2.106 100.925 2.418C100.925 2.73 100.817 2.994 100.601 3.21C100.397 3.426 100.145 3.534 99.8453 3.534ZM100.637 5.136V15H98.9993V5.136H100.637ZM105.427 6.486V12.3C105.427 12.78 105.529 13.122 105.733 13.326C105.937 13.518 106.291 13.614 106.795 13.614H108.001V15H106.525C105.613 15 104.929 14.79 104.473 14.37C104.017 13.95 103.789 13.26 103.789 12.3V6.486H102.511V5.136H103.789V2.652H105.427V5.136H108.001V6.486H105.427ZM114.882 4.956C115.626 4.956 116.298 5.118 116.898 5.442C117.498 5.754 117.966 6.228 118.302 6.864C118.65 7.5 118.824 8.274 118.824 9.186V15H117.204V9.42C117.204 8.436 116.958 7.686 116.466 7.17C115.974 6.642 115.302 6.378 114.45 6.378C113.586 6.378 112.896 6.648 112.38 7.188C111.876 7.728 111.624 8.514 111.624 9.546V15H109.986V1.68H111.624V6.54C111.948 6.036 112.392 5.646 112.956 5.37C113.532 5.094 114.174 4.956 114.882 4.956ZM125.686 8.718C125.686 7.494 125.962 6.396 126.514 5.424C127.066 4.44 127.816 3.672 128.764 3.12C129.724 2.568 130.786 2.292 131.95 2.292C133.318 2.292 134.512 2.622 135.532 3.282C136.552 3.942 137.296 4.878 137.764 6.09H135.802C135.454 5.334 134.95 4.752 134.29 4.344C133.642 3.936 132.862 3.732 131.95 3.732C131.074 3.732 130.288 3.936 129.592 4.344C128.896 4.752 128.35 5.334 127.954 6.09C127.558 6.834 127.36 7.71 127.36 8.718C127.36 9.714 127.558 10.59 127.954 11.346C128.35 12.09 128.896 12.666 129.592 13.074C130.288 13.482 131.074 13.686 131.95 13.686C132.862 13.686 133.642 13.488 134.29 13.092C134.95 12.684 135.454 12.102 135.802 11.346H137.764C137.296 12.546 136.552 13.476 135.532 14.136C134.512 14.784 133.318 15.108 131.95 15.108C130.786 15.108 129.724 14.838 128.764 14.298C127.816 13.746 127.066 12.984 126.514 12.012C125.962 11.04 125.686 9.942 125.686 8.718ZM139.59 10.032C139.59 9.024 139.794 8.142 140.202 7.386C140.61 6.618 141.168 6.024 141.876 5.604C142.596 5.184 143.394 4.974 144.27 4.974C145.134 4.974 145.884 5.16 146.52 5.532C147.156 5.904 147.63 6.372 147.942 6.936V5.136H149.598V15H147.942V13.164C147.618 13.74 147.132 14.22 146.484 14.604C145.848 14.976 145.104 15.162 144.252 15.162C143.376 15.162 142.584 14.946 141.876 14.514C141.168 14.082 140.61 13.476 140.202 12.696C139.794 11.916 139.59 11.028 139.59 10.032ZM147.942 10.05C147.942 9.306 147.792 8.658 147.492 8.106C147.192 7.554 146.784 7.134 146.268 6.846C145.764 6.546 145.206 6.396 144.594 6.396C143.982 6.396 143.424 6.54 142.92 6.828C142.416 7.116 142.014 7.536 141.714 8.088C141.414 8.64 141.264 9.288 141.264 10.032C141.264 10.788 141.414 11.448 141.714 12.012C142.014 12.564 142.416 12.99 142.92 13.29C143.424 13.578 143.982 13.722 144.594 13.722C145.206 13.722 145.764 13.578 146.268 13.29C146.784 12.99 147.192 12.564 147.492 12.012C147.792 11.448 147.942 10.794 147.942 10.05ZM154.364 6.486V12.3C154.364 12.78 154.466 13.122 154.67 13.326C154.874 13.518 155.228 13.614 155.732 13.614H156.938V15H155.462C154.55 15 153.866 14.79 153.41 14.37C152.954 13.95 152.726 13.26 152.726 12.3V6.486H151.448V5.136H152.726V2.652H154.364V5.136H156.938V6.486H154.364ZM162.415 15.162C161.659 15.162 160.981 15.036 160.381 14.784C159.781 14.52 159.307 14.16 158.959 13.704C158.611 13.236 158.419 12.702 158.383 12.102H160.075C160.123 12.594 160.351 12.996 160.759 13.308C161.179 13.62 161.725 13.776 162.397 13.776C163.021 13.776 163.513 13.638 163.873 13.362C164.233 13.086 164.413 12.738 164.413 12.318C164.413 11.886 164.221 11.568 163.837 11.364C163.453 11.148 162.859 10.938 162.055 10.734C161.323 10.542 160.723 10.35 160.255 10.158C159.799 9.954 159.403 9.66 159.067 9.276C158.743 8.88 158.581 8.364 158.581 7.728C158.581 7.224 158.731 6.762 159.031 6.342C159.331 5.922 159.757 5.592 160.309 5.352C160.861 5.1 161.491 4.974 162.199 4.974C163.291 4.974 164.173 5.25 164.845 5.802C165.517 6.354 165.877 7.11 165.925 8.07H164.287C164.251 7.554 164.041 7.14 163.657 6.828C163.285 6.516 162.781 6.36 162.145 6.36C161.557 6.36 161.089 6.486 160.741 6.738C160.393 6.99 160.219 7.32 160.219 7.728C160.219 8.052 160.321 8.322 160.525 8.538C160.741 8.742 161.005 8.91 161.317 9.042C161.641 9.162 162.085 9.3 162.649 9.456C163.357 9.648 163.933 9.84 164.377 10.032C164.821 10.212 165.199 10.488 165.511 10.86C165.835 11.232 166.003 11.718 166.015 12.318C166.015 12.858 165.865 13.344 165.565 13.776C165.265 14.208 164.839 14.55 164.287 14.802C163.747 15.042 163.123 15.162 162.415 15.162Z" fill="#2E353A"/>
</svg>
