<svg width="170" height="20" viewBox="0 0 170 20" fill="none" xmlns="http://www.w3.org/2000/svg">
<path d="M10 7.125C7.1875 7.125 3.25 11.4492 3.25 14.1914C3.25 15.4219 4.16406 16.125 5.74609 16.125C7.46875 16.125 8.59375 15.2461 10 15.2461C11.3711 15.2461 12.4961 16.125 14.2188 16.125C15.7656 16.125 16.7148 15.4219 16.7148 14.1914C16.7148 11.4492 12.7773 7.125 10 7.125ZM4.79688 6.70312C4.44531 5.47266 3.32031 4.69922 2.30078 4.94531C1.28125 5.19141 0.71875 6.35156 1.10547 7.58203C1.45703 8.8125 2.58203 9.58594 3.60156 9.33984C4.65625 9.09375 5.18359 7.89844 4.79688 6.70312ZM7.78516 5.96484C8.875 5.68359 9.40234 4.24219 9.01562 2.69531C8.59375 1.11328 7.36328 0.199219 6.27344 0.445312C5.18359 0.726562 4.65625 2.16797 5.07812 3.71484C5.46484 5.26172 6.69531 6.24609 7.78516 5.96484ZM17.6641 4.94531C16.6445 4.73438 15.5195 5.47266 15.168 6.70312C14.7812 7.93359 15.3438 9.09375 16.3633 9.33984C17.3828 9.55078 18.5078 8.8125 18.8594 7.58203C19.2461 6.35156 18.6836 5.19141 17.6641 4.94531ZM12.1797 5.96484C13.2344 6.24609 14.5 5.26172 14.8867 3.71484C15.3086 2.20312 14.7812 0.726562 13.6914 0.445312C12.6367 0.164062 11.3711 1.14844 10.9844 2.69531C10.5625 4.20703 11.0898 5.68359 12.1797 5.96484Z" fill="#B40140"/>
<path d="M39.4877 6.09C39.1397 5.358 38.6357 4.794 37.9757 4.398C37.3157 3.99 36.5477 3.786 35.6717 3.786C34.7957 3.786 34.0037 3.99 33.2957 4.398C32.5997 4.794 32.0477 5.37 31.6397 6.126C31.2437 6.87 31.0457 7.734 31.0457 8.718C31.0457 9.702 31.2437 10.566 31.6397 11.31C32.0477 12.054 32.5997 12.63 33.2957 13.038C34.0037 13.434 34.7957 13.632 35.6717 13.632C36.8957 13.632 37.9037 13.266 38.6957 12.534C39.4877 11.802 39.9497 10.812 40.0817 9.564H35.0777V8.232H41.8277V9.492C41.7317 10.524 41.4077 11.472 40.8557 12.336C40.3037 13.188 39.5777 13.866 38.6777 14.37C37.7777 14.862 36.7757 15.108 35.6717 15.108C34.5077 15.108 33.4457 14.838 32.4857 14.298C31.5257 13.746 30.7637 12.984 30.1997 12.012C29.6477 11.04 29.3717 9.942 29.3717 8.718C29.3717 7.494 29.6477 6.396 30.1997 5.424C30.7637 4.44 31.5257 3.678 32.4857 3.138C33.4457 2.586 34.5077 2.31 35.6717 2.31C37.0037 2.31 38.1797 2.64 39.1997 3.3C40.2317 3.96 40.9817 4.89 41.4497 6.09H39.4877ZM48.2954 15.162C47.3714 15.162 46.5314 14.952 45.7754 14.532C45.0314 14.112 44.4434 13.518 44.0114 12.75C43.5914 11.97 43.3814 11.07 43.3814 10.05C43.3814 9.042 43.5974 8.154 44.0294 7.386C44.4734 6.606 45.0734 6.012 45.8294 5.604C46.5854 5.184 47.4314 4.974 48.3674 4.974C49.3034 4.974 50.1494 5.184 50.9054 5.604C51.6614 6.012 52.2554 6.6 52.6874 7.368C53.1314 8.136 53.3534 9.03 53.3534 10.05C53.3534 11.07 53.1254 11.97 52.6694 12.75C52.2254 13.518 51.6194 14.112 50.8514 14.532C50.0834 14.952 49.2314 15.162 48.2954 15.162ZM48.2954 13.722C48.8834 13.722 49.4354 13.584 49.9514 13.308C50.4674 13.032 50.8814 12.618 51.1934 12.066C51.5174 11.514 51.6794 10.842 51.6794 10.05C51.6794 9.258 51.5234 8.586 51.2114 8.034C50.8994 7.482 50.4914 7.074 49.9874 6.81C49.4834 6.534 48.9374 6.396 48.3494 6.396C47.7494 6.396 47.1974 6.534 46.6934 6.81C46.2014 7.074 45.8054 7.482 45.5054 8.034C45.2054 8.586 45.0554 9.258 45.0554 10.05C45.0554 10.854 45.1994 11.532 45.4874 12.084C45.7874 12.636 46.1834 13.05 46.6754 13.326C47.1674 13.59 47.7074 13.722 48.2954 13.722ZM59.8091 15.162C58.8851 15.162 58.0451 14.952 57.2891 14.532C56.5451 14.112 55.9571 13.518 55.5251 12.75C55.1051 11.97 54.8951 11.07 54.8951 10.05C54.8951 9.042 55.1111 8.154 55.5431 7.386C55.9871 6.606 56.5871 6.012 57.3431 5.604C58.0991 5.184 58.9451 4.974 59.8811 4.974C60.8171 4.974 61.6631 5.184 62.4191 5.604C63.1751 6.012 63.7691 6.6 64.2011 7.368C64.6451 8.136 64.8671 9.03 64.8671 10.05C64.8671 11.07 64.6391 11.97 64.1831 12.75C63.7391 13.518 63.1331 14.112 62.3651 14.532C61.5971 14.952 60.7451 15.162 59.8091 15.162ZM59.8091 13.722C60.3971 13.722 60.9491 13.584 61.4651 13.308C61.9811 13.032 62.3951 12.618 62.7071 12.066C63.0311 11.514 63.1931 10.842 63.1931 10.05C63.1931 9.258 63.0371 8.586 62.7251 8.034C62.4131 7.482 62.0051 7.074 61.5011 6.81C60.9971 6.534 60.4511 6.396 59.8631 6.396C59.2631 6.396 58.7111 6.534 58.2071 6.81C57.7151 7.074 57.3191 7.482 57.0191 8.034C56.7191 8.586 56.5691 9.258 56.5691 10.05C56.5691 10.854 56.7131 11.532 57.0011 12.084C57.3011 12.636 57.6971 13.05 58.1891 13.326C58.6811 13.59 59.2211 13.722 59.8091 13.722ZM66.4088 10.032C66.4088 9.024 66.6128 8.142 67.0208 7.386C67.4288 6.618 67.9868 6.024 68.6948 5.604C69.4148 5.184 70.2188 4.974 71.1068 4.974C71.8748 4.974 72.5888 5.154 73.2488 5.514C73.9088 5.862 74.4128 6.324 74.7608 6.9V1.68H76.4168V15H74.7608V13.146C74.4368 13.734 73.9568 14.22 73.3208 14.604C72.6848 14.976 71.9408 15.162 71.0888 15.162C70.2128 15.162 69.4148 14.946 68.6948 14.514C67.9868 14.082 67.4288 13.476 67.0208 12.696C66.6128 11.916 66.4088 11.028 66.4088 10.032ZM74.7608 10.05C74.7608 9.306 74.6108 8.658 74.3108 8.106C74.0108 7.554 73.6028 7.134 73.0868 6.846C72.5828 6.546 72.0248 6.396 71.4128 6.396C70.8008 6.396 70.2428 6.54 69.7388 6.828C69.2348 7.116 68.8328 7.536 68.5328 8.088C68.2328 8.64 68.0828 9.288 68.0828 10.032C68.0828 10.788 68.2328 11.448 68.5328 12.012C68.8328 12.564 69.2348 12.99 69.7388 13.29C70.2428 13.578 70.8008 13.722 71.4128 13.722C72.0248 13.722 72.5828 13.578 73.0868 13.29C73.6028 12.99 74.0108 12.564 74.3108 12.012C74.6108 11.448 74.7608 10.794 74.7608 10.05ZM97.1237 5.136L94.0457 15H92.3537L89.9777 7.17L87.6017 15H85.9097L82.8137 5.136H84.4877L86.7557 13.416L89.2037 5.136H90.8777L93.2717 13.434L95.5037 5.136H97.1237ZM99.5953 3.534C99.2833 3.534 99.0193 3.426 98.8033 3.21C98.5873 2.994 98.4793 2.73 98.4793 2.418C98.4793 2.106 98.5873 1.842 98.8033 1.626C99.0193 1.41 99.2833 1.302 99.5953 1.302C99.8953 1.302 100.147 1.41 100.351 1.626C100.567 1.842 100.675 2.106 100.675 2.418C100.675 2.73 100.567 2.994 100.351 3.21C100.147 3.426 99.8953 3.534 99.5953 3.534ZM100.387 5.136V15H98.7493V5.136H100.387ZM105.177 6.486V12.3C105.177 12.78 105.279 13.122 105.483 13.326C105.687 13.518 106.041 13.614 106.545 13.614H107.751V15H106.275C105.363 15 104.679 14.79 104.223 14.37C103.767 13.95 103.539 13.26 103.539 12.3V6.486H102.261V5.136H103.539V2.652H105.177V5.136H107.751V6.486H105.177ZM114.632 4.956C115.376 4.956 116.048 5.118 116.648 5.442C117.248 5.754 117.716 6.228 118.052 6.864C118.4 7.5 118.574 8.274 118.574 9.186V15H116.954V9.42C116.954 8.436 116.708 7.686 116.216 7.17C115.724 6.642 115.052 6.378 114.2 6.378C113.336 6.378 112.646 6.648 112.13 7.188C111.626 7.728 111.374 8.514 111.374 9.546V15H109.736V1.68H111.374V6.54C111.698 6.036 112.142 5.646 112.706 5.37C113.282 5.094 113.924 4.956 114.632 4.956ZM129.954 2.454C131.322 2.454 132.504 2.712 133.5 3.228C134.508 3.732 135.276 4.458 135.804 5.406C136.344 6.354 136.614 7.47 136.614 8.754C136.614 10.038 136.344 11.154 135.804 12.102C135.276 13.038 134.508 13.758 133.5 14.262C132.504 14.754 131.322 15 129.954 15H126.048V2.454H129.954ZM129.954 13.65C131.574 13.65 132.81 13.224 133.662 12.372C134.514 11.508 134.94 10.302 134.94 8.754C134.94 7.194 134.508 5.976 133.644 5.1C132.792 4.224 131.562 3.786 129.954 3.786H127.686V13.65H129.954ZM143.077 15.162C142.153 15.162 141.313 14.952 140.557 14.532C139.813 14.112 139.225 13.518 138.793 12.75C138.373 11.97 138.163 11.07 138.163 10.05C138.163 9.042 138.379 8.154 138.811 7.386C139.255 6.606 139.855 6.012 140.611 5.604C141.367 5.184 142.213 4.974 143.149 4.974C144.085 4.974 144.931 5.184 145.687 5.604C146.443 6.012 147.037 6.6 147.469 7.368C147.913 8.136 148.135 9.03 148.135 10.05C148.135 11.07 147.907 11.97 147.451 12.75C147.007 13.518 146.401 14.112 145.633 14.532C144.865 14.952 144.013 15.162 143.077 15.162ZM143.077 13.722C143.665 13.722 144.217 13.584 144.733 13.308C145.249 13.032 145.663 12.618 145.975 12.066C146.299 11.514 146.461 10.842 146.461 10.05C146.461 9.258 146.305 8.586 145.993 8.034C145.681 7.482 145.273 7.074 144.769 6.81C144.265 6.534 143.719 6.396 143.131 6.396C142.531 6.396 141.979 6.534 141.475 6.81C140.983 7.074 140.587 7.482 140.287 8.034C139.987 8.586 139.837 9.258 139.837 10.05C139.837 10.854 139.981 11.532 140.269 12.084C140.569 12.636 140.965 13.05 141.457 13.326C141.949 13.59 142.489 13.722 143.077 13.722ZM154.356 4.974C155.208 4.974 155.952 5.16 156.588 5.532C157.236 5.904 157.716 6.372 158.028 6.936V5.136H159.684V15.216C159.684 16.116 159.492 16.914 159.108 17.61C158.724 18.318 158.172 18.87 157.452 19.266C156.744 19.662 155.916 19.86 154.968 19.86C153.672 19.86 152.592 19.554 151.728 18.942C150.864 18.33 150.354 17.496 150.198 16.44H151.818C151.998 17.04 152.37 17.52 152.934 17.88C153.498 18.252 154.176 18.438 154.968 18.438C155.868 18.438 156.6 18.156 157.164 17.592C157.74 17.028 158.028 16.236 158.028 15.216V13.146C157.704 13.722 157.224 14.202 156.588 14.586C155.952 14.97 155.208 15.162 154.356 15.162C153.48 15.162 152.682 14.946 151.962 14.514C151.254 14.082 150.696 13.476 150.288 12.696C149.88 11.916 149.676 11.028 149.676 10.032C149.676 9.024 149.88 8.142 150.288 7.386C150.696 6.618 151.254 6.024 151.962 5.604C152.682 5.184 153.48 4.974 154.356 4.974ZM158.028 10.05C158.028 9.306 157.878 8.658 157.578 8.106C157.278 7.554 156.87 7.134 156.354 6.846C155.85 6.546 155.292 6.396 154.68 6.396C154.068 6.396 153.51 6.54 153.006 6.828C152.502 7.116 152.1 7.536 151.8 8.088C151.5 8.64 151.35 9.288 151.35 10.032C151.35 10.788 151.5 11.448 151.8 12.012C152.1 12.564 152.502 12.99 153.006 13.29C153.51 13.578 154.068 13.722 154.68 13.722C155.292 13.722 155.85 13.578 156.354 13.29C156.87 12.99 157.278 12.564 157.578 12.012C157.878 11.448 158.028 10.794 158.028 10.05ZM165.944 15.162C165.188 15.162 164.51 15.036 163.91 14.784C163.31 14.52 162.836 14.16 162.488 13.704C162.14 13.236 161.948 12.702 161.912 12.102H163.604C163.652 12.594 163.88 12.996 164.288 13.308C164.708 13.62 165.254 13.776 165.926 13.776C166.55 13.776 167.042 13.638 167.402 13.362C167.762 13.086 167.942 12.738 167.942 12.318C167.942 11.886 167.75 11.568 167.366 11.364C166.982 11.148 166.388 10.938 165.584 10.734C164.852 10.542 164.252 10.35 163.784 10.158C163.328 9.954 162.932 9.66 162.596 9.276C162.272 8.88 162.11 8.364 162.11 7.728C162.11 7.224 162.26 6.762 162.56 6.342C162.86 5.922 163.286 5.592 163.838 5.352C164.39 5.1 165.02 4.974 165.728 4.974C166.82 4.974 167.702 5.25 168.374 5.802C169.046 6.354 169.406 7.11 169.454 8.07H167.816C167.78 7.554 167.57 7.14 167.186 6.828C166.814 6.516 166.31 6.36 165.674 6.36C165.086 6.36 164.618 6.486 164.27 6.738C163.922 6.99 163.748 7.32 163.748 7.728C163.748 8.052 163.85 8.322 164.054 8.538C164.27 8.742 164.534 8.91 164.846 9.042C165.17 9.162 165.614 9.3 166.178 9.456C166.886 9.648 167.462 9.84 167.906 10.032C168.35 10.212 168.728 10.488 169.04 10.86C169.364 11.232 169.532 11.718 169.544 12.318C169.544 12.858 169.394 13.344 169.094 13.776C168.794 14.208 168.368 14.55 167.816 14.802C167.276 15.042 166.652 15.162 165.944 15.162Z" fill="#2E353A"/>
</svg>
