<svg width="152" height="19" viewBox="0 0 152 19" fill="none" xmlns="http://www.w3.org/2000/svg">
<path d="M17.9648 10.375L18 16C18 17.2656 16.9805 18.25 15.75 18.25H4.5C3.23438 18.25 2.25 17.2656 2.25 16V10.375H1.125C0.492188 10.375 0 9.88281 0 9.25C0 8.93359 0.105469 8.65234 0.351562 8.40625L9.35156 0.566406C9.59766 0.320312 9.87891 0.25 10.125 0.25C10.3711 0.25 10.6523 0.355469 10.8633 0.53125L19.8281 8.40625C20.1094 8.65234 20.25 8.93359 20.2148 9.25C20.2148 9.88281 19.6875 10.375 19.0898 10.375H17.9648ZM10.5117 14.207L13.7812 10.9375C14.5547 10.1641 14.5547 8.93359 13.7812 8.125C12.9727 7.35156 11.7422 7.35156 10.9688 8.125L10.125 8.96875L9.28125 8.125C8.47266 7.35156 7.24219 7.35156 6.46875 8.125C5.66016 8.93359 5.66016 10.1641 6.46875 10.9375L9.70312 14.207C9.91406 14.418 10.3008 14.418 10.5117 14.207Z" fill="#B40140"/>
<path d="M42.8508 3.454V16H41.2128V10.312H34.8228V16H33.1848V3.454H34.8228V8.962H41.2128V3.454H42.8508ZM49.9497 16.162C49.0257 16.162 48.1857 15.952 47.4297 15.532C46.6857 15.112 46.0977 14.518 45.6657 13.75C45.2457 12.97 45.0357 12.07 45.0357 11.05C45.0357 10.042 45.2517 9.154 45.6837 8.386C46.1277 7.606 46.7277 7.012 47.4837 6.604C48.2397 6.184 49.0857 5.974 50.0217 5.974C50.9577 5.974 51.8037 6.184 52.5597 6.604C53.3157 7.012 53.9097 7.6 54.3417 8.368C54.7857 9.136 55.0077 10.03 55.0077 11.05C55.0077 12.07 54.7797 12.97 54.3237 13.75C53.8797 14.518 53.2737 15.112 52.5057 15.532C51.7377 15.952 50.8857 16.162 49.9497 16.162ZM49.9497 14.722C50.5377 14.722 51.0897 14.584 51.6057 14.308C52.1217 14.032 52.5357 13.618 52.8477 13.066C53.1717 12.514 53.3337 11.842 53.3337 11.05C53.3337 10.258 53.1777 9.586 52.8657 9.034C52.5537 8.482 52.1457 8.074 51.6417 7.81C51.1377 7.534 50.5917 7.396 50.0037 7.396C49.4037 7.396 48.8517 7.534 48.3477 7.81C47.8557 8.074 47.4597 8.482 47.1597 9.034C46.8597 9.586 46.7097 10.258 46.7097 11.05C46.7097 11.854 46.8537 12.532 47.1417 13.084C47.4417 13.636 47.8377 14.05 48.3297 14.326C48.8217 14.59 49.3617 14.722 49.9497 14.722ZM65.9094 6.136V16H64.2714V14.542C63.9594 15.046 63.5214 15.442 62.9574 15.73C62.4054 16.006 61.7934 16.144 61.1214 16.144C60.3534 16.144 59.6634 15.988 59.0514 15.676C58.4394 15.352 57.9534 14.872 57.5934 14.236C57.2454 13.6 57.0714 12.826 57.0714 11.914V6.136H58.6914V11.698C58.6914 12.67 58.9374 13.42 59.4294 13.948C59.9214 14.464 60.5934 14.722 61.4454 14.722C62.3214 14.722 63.0114 14.452 63.5154 13.912C64.0194 13.372 64.2714 12.586 64.2714 11.554V6.136H65.9094ZM72.1671 16.162C71.4111 16.162 70.7331 16.036 70.1331 15.784C69.5331 15.52 69.0591 15.16 68.7111 14.704C68.3631 14.236 68.1711 13.702 68.1351 13.102H69.8271C69.8751 13.594 70.1031 13.996 70.5111 14.308C70.9311 14.62 71.4771 14.776 72.1491 14.776C72.7731 14.776 73.2651 14.638 73.6251 14.362C73.9851 14.086 74.1651 13.738 74.1651 13.318C74.1651 12.886 73.9731 12.568 73.5891 12.364C73.2051 12.148 72.6111 11.938 71.8071 11.734C71.0751 11.542 70.4751 11.35 70.0071 11.158C69.5511 10.954 69.1551 10.66 68.8191 10.276C68.4951 9.88 68.3331 9.364 68.3331 8.728C68.3331 8.224 68.4831 7.762 68.7831 7.342C69.0831 6.922 69.5091 6.592 70.0611 6.352C70.6131 6.1 71.2431 5.974 71.9511 5.974C73.0431 5.974 73.9251 6.25 74.5971 6.802C75.2691 7.354 75.6291 8.11 75.6771 9.07H74.0391C74.0031 8.554 73.7931 8.14 73.4091 7.828C73.0371 7.516 72.5331 7.36 71.8971 7.36C71.3091 7.36 70.8411 7.486 70.4931 7.738C70.1451 7.99 69.9711 8.32 69.9711 8.728C69.9711 9.052 70.0731 9.322 70.2771 9.538C70.4931 9.742 70.7571 9.91 71.0691 10.042C71.3931 10.162 71.8371 10.3 72.4011 10.456C73.1091 10.648 73.6851 10.84 74.1291 11.032C74.5731 11.212 74.9511 11.488 75.2631 11.86C75.5871 12.232 75.7551 12.718 75.7671 13.318C75.7671 13.858 75.6171 14.344 75.3171 14.776C75.0171 15.208 74.5911 15.55 74.0391 15.802C73.4991 16.042 72.8751 16.162 72.1671 16.162ZM87.0794 10.69C87.0794 11.002 87.0614 11.332 87.0254 11.68H79.1414C79.2014 12.652 79.5314 13.414 80.1314 13.966C80.7434 14.506 81.4814 14.776 82.3454 14.776C83.0534 14.776 83.6414 14.614 84.1094 14.29C84.5894 13.954 84.9254 13.51 85.1174 12.958H86.8814C86.6174 13.906 86.0894 14.68 85.2974 15.28C84.5054 15.868 83.5214 16.162 82.3454 16.162C81.4094 16.162 80.5694 15.952 79.8254 15.532C79.0934 15.112 78.5174 14.518 78.0974 13.75C77.6774 12.97 77.4674 12.07 77.4674 11.05C77.4674 10.03 77.6714 9.136 78.0794 8.368C78.4874 7.6 79.0574 7.012 79.7894 6.604C80.5334 6.184 81.3854 5.974 82.3454 5.974C83.2814 5.974 84.1094 6.178 84.8294 6.586C85.5494 6.994 86.1014 7.558 86.4854 8.278C86.8814 8.986 87.0794 9.79 87.0794 10.69ZM85.3874 10.348C85.3874 9.724 85.2494 9.19 84.9734 8.746C84.6974 8.29 84.3194 7.948 83.8394 7.72C83.3714 7.48 82.8494 7.36 82.2734 7.36C81.4454 7.36 80.7374 7.624 80.1494 8.152C79.5734 8.68 79.2434 9.412 79.1594 10.348H85.3874ZM91.2395 7.486V13.3C91.2395 13.78 91.3415 14.122 91.5455 14.326C91.7495 14.518 92.1035 14.614 92.6075 14.614H93.8135V16H92.3375C91.4255 16 90.7415 15.79 90.2855 15.37C89.8295 14.95 89.6015 14.26 89.6015 13.3V7.486H88.3235V6.136H89.6015V3.652H91.2395V6.136H93.8135V7.486H91.2395ZM97.4361 7.738C97.7241 7.174 98.1321 6.736 98.6601 6.424C99.2001 6.112 99.8541 5.956 100.622 5.956V7.648H100.19C98.3541 7.648 97.4361 8.644 97.4361 10.636V16H95.7981V6.136H97.4361V7.738ZM101.901 11.032C101.901 10.024 102.105 9.142 102.513 8.386C102.921 7.618 103.479 7.024 104.187 6.604C104.907 6.184 105.705 5.974 106.581 5.974C107.445 5.974 108.195 6.16 108.831 6.532C109.467 6.904 109.941 7.372 110.253 7.936V6.136H111.909V16H110.253V14.164C109.929 14.74 109.443 15.22 108.795 15.604C108.159 15.976 107.415 16.162 106.563 16.162C105.687 16.162 104.895 15.946 104.187 15.514C103.479 15.082 102.921 14.476 102.513 13.696C102.105 12.916 101.901 12.028 101.901 11.032ZM110.253 11.05C110.253 10.306 110.103 9.658 109.803 9.106C109.503 8.554 109.095 8.134 108.579 7.846C108.075 7.546 107.517 7.396 106.905 7.396C106.293 7.396 105.735 7.54 105.231 7.828C104.727 8.116 104.325 8.536 104.025 9.088C103.725 9.64 103.575 10.288 103.575 11.032C103.575 11.788 103.725 12.448 104.025 13.012C104.325 13.564 104.727 13.99 105.231 14.29C105.735 14.578 106.293 14.722 106.905 14.722C107.517 14.722 108.075 14.578 108.579 14.29C109.095 13.99 109.503 13.564 109.803 13.012C110.103 12.448 110.253 11.794 110.253 11.05ZM115.523 4.534C115.211 4.534 114.947 4.426 114.731 4.21C114.515 3.994 114.407 3.73 114.407 3.418C114.407 3.106 114.515 2.842 114.731 2.626C114.947 2.41 115.211 2.302 115.523 2.302C115.823 2.302 116.075 2.41 116.279 2.626C116.495 2.842 116.603 3.106 116.603 3.418C116.603 3.73 116.495 3.994 116.279 4.21C116.075 4.426 115.823 4.534 115.523 4.534ZM116.315 6.136V16H114.677V6.136H116.315ZM123.913 5.956C125.113 5.956 126.085 6.322 126.829 7.054C127.573 7.774 127.945 8.818 127.945 10.186V16H126.325V10.42C126.325 9.436 126.079 8.686 125.587 8.17C125.095 7.642 124.423 7.378 123.571 7.378C122.707 7.378 122.017 7.648 121.501 8.188C120.997 8.728 120.745 9.514 120.745 10.546V16H119.107V6.136H120.745V7.54C121.069 7.036 121.507 6.646 122.059 6.37C122.623 6.094 123.241 5.956 123.913 5.956ZM139.62 10.69C139.62 11.002 139.602 11.332 139.566 11.68H131.682C131.742 12.652 132.072 13.414 132.672 13.966C133.284 14.506 134.022 14.776 134.886 14.776C135.594 14.776 136.182 14.614 136.65 14.29C137.13 13.954 137.466 13.51 137.658 12.958H139.422C139.158 13.906 138.63 14.68 137.838 15.28C137.046 15.868 136.062 16.162 134.886 16.162C133.95 16.162 133.11 15.952 132.366 15.532C131.634 15.112 131.058 14.518 130.638 13.75C130.218 12.97 130.008 12.07 130.008 11.05C130.008 10.03 130.212 9.136 130.62 8.368C131.028 7.6 131.598 7.012 132.33 6.604C133.074 6.184 133.926 5.974 134.886 5.974C135.822 5.974 136.65 6.178 137.37 6.586C138.09 6.994 138.642 7.558 139.026 8.278C139.422 8.986 139.62 9.79 139.62 10.69ZM137.928 10.348C137.928 9.724 137.79 9.19 137.514 8.746C137.238 8.29 136.86 7.948 136.38 7.72C135.912 7.48 135.39 7.36 134.814 7.36C133.986 7.36 133.278 7.624 132.69 8.152C132.114 8.68 131.784 9.412 131.7 10.348H137.928ZM141.17 11.032C141.17 10.024 141.374 9.142 141.782 8.386C142.19 7.618 142.748 7.024 143.456 6.604C144.176 6.184 144.98 5.974 145.868 5.974C146.636 5.974 147.35 6.154 148.01 6.514C148.67 6.862 149.174 7.324 149.522 7.9V2.68H151.178V16H149.522V14.146C149.198 14.734 148.718 15.22 148.082 15.604C147.446 15.976 146.702 16.162 145.85 16.162C144.974 16.162 144.176 15.946 143.456 15.514C142.748 15.082 142.19 14.476 141.782 13.696C141.374 12.916 141.17 12.028 141.17 11.032ZM149.522 11.05C149.522 10.306 149.372 9.658 149.072 9.106C148.772 8.554 148.364 8.134 147.848 7.846C147.344 7.546 146.786 7.396 146.174 7.396C145.562 7.396 145.004 7.54 144.5 7.828C143.996 8.116 143.594 8.536 143.294 9.088C142.994 9.64 142.844 10.288 142.844 11.032C142.844 11.788 142.994 12.448 143.294 13.012C143.594 13.564 143.996 13.99 144.5 14.29C145.004 14.578 145.562 14.722 146.174 14.722C146.786 14.722 147.344 14.578 147.848 14.29C148.364 13.99 148.772 13.564 149.072 13.012C149.372 12.448 149.522 11.794 149.522 11.05Z" fill="#2E353A"/>
</svg>
