<svg width="1280" height="130" viewBox="0 0 1280 130" fill="none" xmlns="http://www.w3.org/2000/svg">
<g filter="url(#filter0_d_2024_847)">
<path fill-rule="evenodd" clip-rule="evenodd" d="M-45.9996 6H1296V89L1296 114.113C1296 114.113 1375.72 117.763 1284.75 114.113C1262.49 113.22 1241.13 111.732 1221.14 109.778C1198.66 107.579 1139.72 102.935 1088 106.052C1087.31 106.093 1086.62 106.133 1085.94 106.173L1085.94 106.173C1083.09 106.34 1080.25 106.507 1077.57 106.738C1075.86 106.885 1074.02 107.066 1071.97 107.268L1071.97 107.268C1059.43 108.502 1039.13 110.502 993.484 110.113C977.275 109.975 941.431 109.513 926.025 108.589L875.957 105.586C853.344 104.229 828.91 104.192 806.378 105.479L722.188 110.284C701.151 111.485 679.512 112.31 657.61 112.749L657.663 112.951C657.663 112.951 572.327 117.763 481.355 114.113C459.098 113.22 437.736 111.732 417.75 109.778C395.264 107.579 336.327 102.935 284.604 106.052C283.918 106.093 283.231 106.133 282.545 106.173C279.7 106.34 276.861 106.507 274.174 106.738C272.465 106.885 270.625 107.066 268.577 107.268C256.042 108.502 235.734 110.502 190.09 110.113C173.882 109.975 138.038 109.513 122.632 108.589L72.5635 105.586C49.9504 104.229 25.5169 104.192 2.985 105.479L-47.999 110.113L-47.999 85H-45.9996V6Z" fill="white"/>
</g>
<defs>
<filter id="filter0_d_2024_847" x="-57.999" y="0" width="1396.32" height="129.735" filterUnits="userSpaceOnUse" color-interpolation-filters="sRGB">
<feFlood flood-opacity="0" result="BackgroundImageFix"/>
<feColorMatrix in="SourceAlpha" type="matrix" values="0 0 0 0 0 0 0 0 0 0 0 0 0 0 0 0 0 0 127 0" result="hardAlpha"/>
<feOffset dy="4"/>
<feGaussianBlur stdDeviation="5"/>
<feComposite in2="hardAlpha" operator="out"/>
<feColorMatrix type="matrix" values="0 0 0 0 0 0 0 0 0 0 0 0 0 0 0 0 0 0 0.1 0"/>
<feBlend mode="normal" in2="BackgroundImageFix" result="effect1_dropShadow_2024_847"/>
<feBlend mode="normal" in="SourceGraphic" in2="effect1_dropShadow_2024_847" result="shape"/>
</filter>
</defs>
</svg>
