<svg width="144" height="125" viewBox="0 0 144 125" fill="none" xmlns="http://www.w3.org/2000/svg">
<g clip-path="url(#clip0_1988_415)">
<path d="M106.005 5.02075H39.787C19.4605 5.02075 2.98254 21.555 2.98254 41.9511V83.6856C2.98254 104.082 19.4605 120.616 39.787 120.616H106.005C126.332 120.616 142.81 104.082 142.81 83.6856V41.9511C142.81 21.555 126.332 5.02075 106.005 5.02075Z" fill="white"/>
<path d="M143.984 71.7342C143.784 56.9509 143.46 42.1348 142.299 27.3745C142.26 26.879 142.07 25.7567 142.025 25.2546C141.567 20.4045 140.873 15.41 138.444 11.1375C138.342 10.957 138.277 10.7634 138.218 10.5632C138.175 10.4155 138.097 10.2711 138.018 10.13C137.858 9.84126 137.672 9.56889 137.449 9.32606C129.892 1.08286 117.487 0.807212 106.993 0.0819938C106.966 0.0819938 106.937 0.0819938 106.911 0.0787123C92.7797 -0.14115 78.6779 0.0688677 64.5958 1.2896C49.0518 2.77285 33.0402 1.02707 17.8266 4.49893C-2.9467 9.49998 1.50752 25.3629 0.895961 42.1085C0.778229 51.9925 0.0064262 61.8404 0.202647 71.7407C0.215729 80.3515 -0.500478 89.077 0.670307 97.6025C4.73208 124.826 29.675 122.831 51.0271 123.871C67.7811 124.8 84.558 125.489 101.338 124.563C101.384 124.563 101.43 124.563 101.476 124.563C119.479 125.364 138.722 121.948 142.646 101.209L142.669 100.989C143.954 91.3249 144.052 81.4902 143.984 71.7374V71.7342ZM136.727 96.3653C136.727 96.4638 136.717 96.5655 136.7 96.6607C135.078 105.452 131.671 109.971 123.017 112.829C119.07 114.41 114.998 115.789 110.691 115.671C100.135 115.762 89.5649 115.369 79.0213 115.92C66.5417 116.248 54.0293 116.107 41.5399 116.025C31.029 115.828 18.2681 115.254 12.679 104.825C12.5809 104.641 10.7986 100.621 10.5827 99.9061C9.60817 97.5007 9.19938 94.9313 8.71536 92.3947C8.66958 92.1617 8.33273 90.5406 8.31965 90.4619C8.01878 88.936 8.11362 87.3707 8.03186 85.8218C8.03186 85.7791 8.02532 85.7397 8.02205 85.6971C7.31239 79.9971 6.74334 74.3266 7.14233 68.5576C7.14233 68.515 7.1456 68.4723 7.14233 68.4297C6.8251 57.6564 8.38506 47.0308 8.51587 36.2937C8.46682 36.2444 8.48317 36.1197 8.5355 36.1066C9.17648 25.4285 11.0471 17.7662 23.1507 16.4371C32.118 15.5708 40.9904 14.0154 49.9479 13.0965C61.3516 11.9119 72.8763 11.8758 84.2637 10.5271C84.2899 10.5238 84.3193 10.5205 84.3455 10.5205C96.1939 9.87408 108.53 8.4302 120.002 12.3812C120.666 12.6109 121.058 12.8734 121.549 13.1294C132.652 18.9869 135.366 27.2891 135.674 38.4234C137.299 57.6892 136.622 77.0371 136.73 96.3686L136.727 96.3653Z" fill="#B40140"/>
<path d="M130.945 39.0862C130.863 38.4398 130.771 36.9664 130.824 36.9172C131.161 29.7864 127.122 22.3078 120.378 19.5841C114.269 16.6997 107.362 17.4708 100.799 17.3691C89.8659 18.1337 78.9462 18.9967 67.9872 19.3249C57.9505 20.0632 47.9335 19.9746 37.8477 20.165C33.8219 20.1551 29.9335 21.4677 26.0745 22.4883C22.7125 23.8042 19.5599 26.623 18.242 30.0095C15.5014 36.6514 15.5145 60.4129 14.8735 65.1416C15.1777 80.0233 10.9229 99.4959 25.8357 108.678C31.2089 112.592 38.4658 111.122 44.7253 111.851C65.8648 111.789 87.0076 111.969 108.144 111.726C111.584 111.296 115.093 110.633 118.318 109.446C131.913 103.453 130.425 93.2413 130.663 80.4335C130.781 66.6511 130.611 52.8555 130.945 39.0862ZM37.5239 35.1681C37.1021 35.2862 36.6638 35.3486 36.2322 35.4339C35.7907 36.3298 36.0752 38.1871 34.9404 38.4234C34.5218 38.4234 34.5021 38.1248 34.5316 37.8393C34.7703 34.456 35.9084 31.2335 36.5265 27.9159C36.5886 27.5812 36.7718 27.2695 37.0628 27.1021C39.2899 25.8354 41.5497 35.6702 41.3568 37.8885C41.3404 38.0755 41.19 38.2265 41.0069 38.2396C38.9171 38.4037 41.7918 34.5151 37.5207 35.1681H37.5239ZM45.7979 102.38C44.2576 104.484 41.4386 105.38 38.9596 104.802C38.5083 104.697 38.1453 104.343 38.0341 103.89C37.7005 102.528 38.2761 100.809 38.1061 99.4073C38.1093 95.1971 37.4324 94.17 42.3771 94.8263C43.5283 95.312 45.6606 96.6541 44.2282 97.9798C43.2798 98.6624 43.6068 99.2301 44.5258 99.5386C44.7547 99.614 44.9967 99.6337 45.1602 99.8077C45.8568 100.543 46.6057 101.366 45.7979 102.377V102.38ZM45.9876 37.3372C40.3561 37.2289 42.3019 30.5576 46.5894 31.3845C47.5181 30.4394 45.7129 27.7715 47.3252 27.5451C47.5443 27.5123 47.7536 27.6403 47.8288 27.8503C48.5614 29.9341 49.0977 35.7424 48.4763 36.4479C47.6816 37.3536 46.7758 37.265 45.9876 37.3372ZM48.9734 104.198C46.4618 105.298 47.9498 100.444 47.6064 99.112C47.4723 98.1209 47.7634 97.6615 48.7739 98.1899C49.1108 100.083 48.9963 102.272 48.9734 104.198ZM48.8949 96.6541C48.5483 96.8871 47.8877 96.6869 47.6293 95.9158C47.4756 95.4629 47.7765 95.3907 48.0316 95.0921C48.8099 94.7377 49.4411 96.4507 48.8949 96.6541ZM50.0265 36.2477C48.3194 31.9063 52.8848 28.2375 54.2616 34.1377C55.0334 36.4216 51.0338 38.3577 50.0265 36.2477ZM54.9549 99.0628C51.8481 98.4458 52.5054 101.888 51.9037 103.847C51.8546 104.093 51.1744 104.238 51.0599 103.949C50.6838 102.062 50.4811 99.9258 50.6348 98.0258C51.0043 97.7042 51.3542 98.1111 51.6453 98.3408C52.6395 99.2925 53.4309 96.4277 55.7005 98.0258C55.9556 98.6001 55.5959 99.1284 54.9582 99.0628H54.9549ZM55.7529 41.0749C55.6515 41.0552 55.5501 41.0355 55.4487 41.0158L55.2133 40.727C55.2427 38.3807 54.9614 33.9146 54.9713 32.3821C54.9713 32.0638 55.1642 31.7783 55.4553 31.6503C56.6032 31.1449 58.1926 30.4788 59.262 31.4698C60.2234 32.3099 61.0345 33.9933 60.3346 35.2009C59.4942 37.4291 56.6064 36.7761 56.3252 37.7868C56.2663 38.8073 56.5247 39.818 56.3906 40.8222C56.2074 40.9797 55.9818 41.0322 55.7529 41.0781V41.0749ZM64.4128 103.788C64.3277 103.837 64.2427 103.89 64.1544 103.939C62.6075 103.667 63.9974 100.615 63.1112 99.4992C61.9894 97.8814 61.7016 102.088 61.5381 102.735C61.1849 103.135 60.4687 104.458 60.1842 103.299C60.1188 101.944 60.073 100.772 59.3306 99.4565C59.1638 99.1612 58.8106 99.007 58.4575 99.2957C57.2474 100.592 58.1566 102.584 57.823 104.175C57.388 104.563 56.6489 104.861 56.5672 104.047C56.541 102.531 56.1747 101.002 56.3154 99.4861C56.5541 98.3441 57.8132 98.7576 58.4215 97.9864C58.5 97.9241 58.5817 97.8617 58.6602 97.7994C58.8728 97.5664 59.1802 97.714 59.2489 97.842C59.9684 97.9339 60.2104 98.5672 60.75 98.9249C61.9927 100.277 61.2111 97.2382 63.5396 97.7928C64.6319 99.1317 65.3612 102.334 64.4128 103.785V103.788ZM64.8575 31.2106C64.3997 31.2237 63.6344 31.0596 63.3989 31.332C63.1308 31.6405 64.8543 38.8336 62.0548 37.3405C61.8652 36.1722 61.9829 34.9679 61.924 33.7833C61.8815 33.1893 61.8979 31.985 61.7801 31.4009C61.4564 31.1318 61.0378 31.3648 60.6453 31.2237C60.3543 31.1548 60.3412 30.994 60.3608 30.7709C60.3019 30.4755 61.7769 30.4493 61.839 29.9406C61.9862 28.7724 62.9476 27.404 63.0686 29.9111C63.0686 29.9111 63.9843 29.9931 64.4029 29.9734C65.7242 29.9111 66.6824 31.25 64.8575 31.2106ZM66.0577 94.8263C66.5516 94.1601 67.2383 94.3538 67.5327 95.0593C67.9807 96.2702 64.9099 95.7747 66.0577 94.8263ZM67.6046 103.289C67.6602 104.041 66.9604 104.497 66.303 104.149C66.0872 102.282 66.3325 100.392 66.0479 98.5279C66.0414 97.9569 66.3259 97.5861 66.7838 97.6025C67.8728 97.6222 67.5327 102.295 67.6079 103.289H67.6046ZM74.7569 103.545C72.4415 105.731 74.5508 97.9437 73.2983 98.4852C71.7743 98.9348 71.3328 100.434 71.0156 101.773C69.5832 106.18 69.0828 102.056 69.1777 99.9652C69.0894 99.5845 68.9847 97.7731 69.4785 97.8355C70.5676 97.8027 69.8285 99.4729 70.7965 99.7059C70.8292 99.6239 70.8619 99.5451 70.8946 99.4631C71.3557 98.2752 72.7783 96.5753 74.142 97.3334C75.4338 98.9741 74.7144 101.363 74.9923 103.322C74.9138 103.398 74.8354 103.47 74.7569 103.545ZM74.8288 37.393C73.5305 38.0197 73.0825 37.8786 72.9516 36.6809C72.9189 36.3987 72.8012 36.1329 72.6017 35.9294C72.5755 35.9032 72.5461 35.8736 72.5167 35.8474C72.1569 36.2707 71.8495 36.7235 71.4898 37.1436C71.2445 37.4291 70.8913 37.6063 70.5152 37.6292C67.3397 37.8163 67.9415 32.3985 70.2405 31.1417C71.238 30.7971 73.0825 30.6954 73.2656 32.09C73.6417 33.7078 73.5763 35.6341 74.819 36.8778C75.0479 37.0451 75.0839 37.2158 74.8288 37.393ZM101.593 33.7209C102.329 30.3246 107.487 29.7175 105.979 33.8785C105.331 34.6923 104.18 34.3576 103.287 34.538C102.342 36.4774 105.256 36.402 106.469 36.7367C107.532 38.1346 100.88 38.4004 101.593 33.7209ZM92.5214 28.8643C92.6457 28.8905 92.77 28.9201 92.8942 28.9463C93.9931 30.7183 93.1624 33.8883 93.5908 36.064C93.7053 36.5792 93.5908 37.5767 92.8975 37.0156C91.8804 36.3134 92.5901 34.0819 92.2892 32.9071C92.2303 31.9161 92.0603 30.9316 91.9393 29.9439C91.6319 28.9266 91.6548 28.8873 92.5181 28.8643H92.5214ZM81.484 100.795C81.9484 106.384 76.186 109.055 77.5497 106.164C79.1195 105.317 80.5814 104.054 80.2053 102.092C73.2296 104.858 76.6733 94.3406 81.3041 97.3826C81.5363 98.4918 81.4578 99.6633 81.484 100.795ZM82.3408 37.1698C77.6609 38.0952 76.4542 30.6691 80.1268 28.6543C81.2616 27.5878 83.6751 28.861 83.5868 29.7437C83.5672 29.9538 83.3285 30.062 83.1322 29.9866C79.0868 28.418 78.2005 33.2451 80.4277 35.621C80.8136 36.0311 81.3891 36.251 81.9353 36.1099C82.5665 35.9458 82.9949 35.4044 83.1093 34.5676C83.0766 33.4355 81.9942 33.5011 81.2093 33.1336C80.9738 33.022 80.8201 32.7791 80.8234 32.5166C80.8364 31.7619 81.3662 31.8144 82.174 31.6634C82.8771 31.588 83.6391 31.2664 84.3357 31.414C85.6569 31.9424 84.7412 32.5626 83.8484 32.8842C84.3586 34.5052 84.2278 36.5988 82.3408 37.1698ZM88.7867 102.738C88.7638 103.161 88.4923 103.535 88.0966 103.677C87.1057 104.028 87.521 102.853 87.5701 101.796C87.5897 99.427 86.8245 97.1923 85.0356 100.267C85.0356 100.267 84.5287 102.331 84.4927 102.695C84.5745 102.61 84.0152 103.788 83.2532 103.69C83.0014 103.683 82.7692 102.554 82.936 102.308C83.057 99.3482 83.1191 97.4023 83.0341 94.4391C82.9426 93.855 83.3383 93.8845 83.7471 93.8845C85.1762 93.8845 84.2801 97.3596 84.5025 98.6526C88.4923 95.4793 88.9535 99.6108 88.7899 102.738H88.7867ZM89.5716 37.1534C89.5029 37.1994 89.4342 37.2453 89.3655 37.2912C89.2412 37.3766 89.1006 37.4389 88.9535 37.4717C85.222 38.256 84.5287 32.4411 87.956 31.4272C91.1675 30.8168 92.4985 35.6538 89.5716 37.1567V37.1534ZM95.7329 102.761C95.8212 103.503 94.9251 104.005 94.4117 103.46C94.2351 103.273 94.15 103.004 94.2612 102.705C94.4902 102.085 93.8917 101.691 93.5287 102.397C91.4651 106.404 89.2118 100.792 90.6933 98.5311C91.1413 97.0184 93.7511 96.5163 94.3691 98.1013C94.6275 99.683 95.5497 101.202 95.7362 102.758L95.7329 102.761ZM95.262 35.447C94.6537 33.1073 96.6518 31.1384 98.8822 30.994C98.8397 30.2983 98.6337 25.9076 99.9255 28.0144C100.795 30.5346 100.06 33.4125 100.39 36.1066C100.449 36.5792 100.151 37.0254 99.6867 37.1305C97.9273 37.5341 95.517 37.5242 95.262 35.447ZM107.735 104.356L107.729 104.366C105.04 105.193 107.071 100.306 106.034 98.8987C105.658 98.3343 104.717 99.0595 104.435 99.3515C103.346 100.362 103.166 102.013 102.077 102.958C100.727 103.67 101.358 101.724 101.178 101.009C100.998 100.484 101.158 98.0619 100.557 98.2489C99.3924 98.3539 98.9117 100.651 98.6631 101.632C97.2013 106.915 96.6061 99.8372 97.1162 97.5729C97.1686 97.3465 97.4694 97.2973 97.6003 97.4909C97.8553 97.865 98.0548 98.2817 98.2936 98.669C98.8855 98.3572 98.8037 97.8059 100.338 96.9363C101.145 96.4769 101.691 97.3038 102.045 97.8158C102.48 98.4524 102.277 99.3253 102.368 100.087C107.294 93.7237 109.174 99.9422 107.742 104.359L107.735 104.356ZM114.001 37.2486C113.605 37.7277 113.475 37.7113 113.049 37.16C112.991 37.0812 112.938 36.9959 112.899 36.904C112.84 36.7596 112.765 36.5234 112.752 36.251C112.843 35.1911 112.987 34.2197 112.628 33.0942C110.992 30.7413 109.403 35.808 109.151 37.0779C106.738 37.8918 108.193 33.5273 107.699 32.2246C107.647 32.2836 107.608 32.3427 107.585 32.4018C107.611 32.3427 107.647 32.2836 107.699 32.2246C107.768 30.7348 108.768 31.5256 109.046 32.4477C109.181 32.8579 109.305 33.757 109.795 33.0548C112.287 28.8774 114.132 31.9949 114.08 35.8441C114.076 36.1952 114.23 36.6874 113.998 37.2486H114.001Z" fill="#B40140"/>
<path d="M102.852 102.023C102.717 102.233 102.581 102.443 102.444 102.653C102.646 102.384 102.656 102.318 102.852 102.023Z" fill="#B40140"/>
<path d="M83.2532 103.686C83.2107 103.683 83.1715 103.676 83.1355 103.67C83.1715 103.676 83.2074 103.683 83.2532 103.686Z" fill="#B40140"/>
<path d="M82.936 103.581C82.936 103.581 82.9197 103.552 82.9164 103.535C82.9197 103.552 82.9262 103.568 82.936 103.581Z" fill="#B40140"/>
<path d="M59.2488 97.8452C59.1801 97.7173 58.876 97.5663 58.6602 97.8026C58.9545 97.7435 59.1082 97.796 59.2488 97.8452Z" fill="#B40140"/>
<path d="M114.099 35.2205C114.099 35.3648 114.106 35.506 114.109 35.6503C114.109 35.506 114.102 35.3648 114.099 35.2205Z" fill="#B40140"/>
<path d="M79.9927 105.977C80.0319 105.924 80.0712 105.872 80.1137 105.823C80.0548 105.862 80.0156 105.911 79.9927 105.977Z" fill="#B40140"/>
<path d="M44.1301 100.7C42.678 99.5877 41.0429 100.402 39.5679 101.041C39.2932 101.16 39.0937 101.402 39.0185 101.691C38.1388 105.114 47.1126 102.784 44.1301 100.7Z" fill="#B40140"/>
<path d="M39.8491 99.3218C41.1344 98.951 42.4131 98.636 43.2176 97.4907C43.3811 97.2577 43.3844 96.9329 43.2013 96.713C42.4589 95.8172 40.101 95.2527 39.4959 96.2799C39.4436 97.0412 38.5901 99.3743 39.8459 99.3218H39.8491Z" fill="#B40140"/>
<path d="M39.1265 33.2647L39.1461 33.2483C38.3808 29.1924 37.8118 28.1521 36.6704 32.9366C36.4644 34.1081 39.0643 33.2516 39.1265 33.2647Z" fill="#B40140"/>
<path d="M78.6485 98.3703C77.2946 99.3515 77.0624 102.42 79.4432 101.097C80.2739 100.316 80.4538 97.3596 78.6485 98.3703Z" fill="#B40140"/>
<path d="M46.0006 32.7693C45.6311 32.5692 45.3237 32.5856 45.0359 32.8448C41.8211 35.7358 47.2565 37.7376 47.021 34.013C46.936 33.3764 46.5108 33.045 46.0006 32.7726V32.7693Z" fill="#B40140"/>
<path d="M59.0265 34.912C59.2031 34.6922 59.2946 34.4132 59.2652 34.1343C59.1049 32.5756 56.8942 31.4238 56.5312 33.5239C56.4069 34.3115 56.2761 35.1614 56.4789 35.9424C56.5279 36.1295 56.7143 36.241 56.904 36.2049C57.7706 36.0343 58.4738 35.5979 59.0265 34.9153V34.912Z" fill="#B40140"/>
<path d="M70.4106 32.6477C69.5145 33.6059 69.0109 36.054 70.3877 36.3263C70.6003 36.369 70.8128 36.2902 70.9437 36.1163C71.5846 35.2533 71.7351 34.1671 71.7874 33.1006C71.7972 32.9103 71.7187 32.7199 71.5683 32.6018C71.4113 32.4771 71.2216 32.4213 71.0189 32.4082C70.7899 32.3918 70.5676 32.4804 70.4106 32.6477Z" fill="#B40140"/>
<path d="M98.4505 36.0771C99.5559 35.5094 99.3989 33.4289 98.6827 32.615C96.073 31.7192 95.4222 36.6349 98.4505 36.0771Z" fill="#B40140"/>
<path d="M93.2998 98.9215C92.1977 97.7041 91.7954 98.8559 91.3964 99.8994C90.932 100.598 91.6417 101.281 91.6973 102.023C91.9982 102.787 92.5018 101.783 92.8779 101.599C93.8165 100.858 93.6497 99.9388 93.2965 98.9215H93.2998Z" fill="#B40140"/>
<path d="M88.5316 32.802C86.8866 32.7954 86.5138 35.7062 87.9135 36.2607C88.9109 36.6184 89.565 35.8768 90 35.0236C90.17 33.9735 89.4113 33.2056 88.5316 32.802Z" fill="#B40140"/>
<path d="M103.477 33.3336C103.785 33.6683 104.079 33.6748 104.396 33.3631C104.628 33.117 105.214 33.0776 104.965 32.546C104.605 31.7158 103.784 32.0177 103.372 32.651C103.222 32.907 103.16 33.1498 103.477 33.3336Z" fill="#B40140"/>
<path d="M52.7605 35.6635C53.8005 34.958 52.7213 33.1925 52.0672 32.51C50.9455 32.2409 50.8179 33.6585 50.8114 34.5478C50.8114 34.7217 50.8703 34.8891 50.9782 35.0236C51.4491 35.6045 51.9985 36.2247 52.7605 35.6668V35.6635Z" fill="#B40140"/>
<path d="M48.1919 95.0264C48.2213 95.0264 48.2475 95.0264 48.2769 95.0329C48.2475 95.0264 48.2181 95.0264 48.1919 95.0264Z" fill="#B40140"/>
<path d="M97.7442 66.523C98.3787 67.6813 99.0327 68.7938 99.605 69.9489C100.318 71.3862 100.884 72.8957 100.907 74.5266C100.93 76.2822 99.5789 77.3618 98.1563 77.3815C97.875 77.3848 97.5905 77.3914 97.3093 77.3848C96.3085 77.3684 96.2006 77.4898 96.6683 78.343C97.0803 79.0978 97.185 79.9116 97.2439 80.7221C97.4335 83.2522 95.8638 83.6066 93.9931 83.2653C92.3122 82.9569 90.7751 82.2513 89.2707 81.4605C88.3943 81.0011 88.2929 81.0339 87.7729 81.8707C85.9121 84.8569 83.2435 86.8487 79.9928 87.994C78.7925 88.414 77.4779 88.6076 76.1763 88.7717C74.129 89.0277 72.1047 88.7914 70.113 88.5354C68.4157 88.3189 66.7086 87.8398 65.1192 87.0883C64.3474 86.724 64.2264 86.7962 64.0204 87.6527C63.5854 89.4444 62.8627 91.0852 61.4008 92.2731C60.4655 93.0311 59.4353 93.4545 58.1468 93.1755C57.0414 92.9393 55.8216 91.4855 56.1257 89.9629C56.5672 87.7479 57.7707 85.9365 59.2326 84.2859C59.6119 83.8593 59.746 83.5475 59.3209 83.0914C57.98 81.6475 57.084 79.9346 56.3808 78.11C56.2631 77.8081 56.0865 77.6605 55.7399 77.8016C54.9746 78.11 54.193 78.389 53.5814 78.9731C53.4441 79.1043 53.3231 79.147 53.1465 79.0978C52.8292 79.0092 52.5349 79.1404 52.2569 79.2553C50.6087 79.9477 48.8688 80.4268 47.1159 80.3185C44.8005 80.1741 43.718 79.2586 43.6559 76.9943C43.633 76.1936 43.5741 75.3864 43.79 74.5955C43.875 74.2739 43.7638 74.1263 43.4074 74.1098C43.064 74.0967 42.6683 74.0869 42.387 73.9228C41.1377 73.1779 41.0494 72.9318 41.4386 71.5306C41.8638 70.0047 42.8547 68.7905 43.7115 67.5074C44.3525 66.5459 45.1668 65.7321 45.9746 64.9117C46.488 64.39 46.4455 64.2489 45.8078 63.9601C44.0353 63.1561 43.7311 61.9813 44.8005 60.3602C45.5527 59.2216 46.5207 58.2962 47.5182 57.4003C48.4797 56.5373 48.4993 56.5602 47.5018 55.707C46.5207 54.8702 46.4455 53.9547 47.2631 52.944C47.6686 52.4419 48.1526 52.0219 48.7086 51.7101C50.1476 50.9062 51.6356 50.1974 53.2184 49.7117C54.0229 49.4656 54.5462 49.0652 54.8438 48.13C55.5011 46.0561 57.1853 44.8846 59.092 44.0445C61.6984 42.8992 64.4684 42.4431 67.2809 42.1773C70.3747 41.882 73.4553 41.8688 76.5491 42.2921C78.1516 42.512 79.7442 42.7319 81.3042 43.165C82.282 43.4374 83.2271 43.8016 84.0643 44.3628C84.9048 44.9272 85.7257 45.1011 86.7362 44.8714C88.0117 44.5794 89.3329 44.4842 90.6476 44.6155C92.0276 44.7533 92.5084 45.846 91.6875 47.0011C91.3834 47.431 91.4161 47.5787 91.8936 47.8182C93.8296 48.7863 95.7231 49.8364 97.427 51.1949C98.0026 51.6543 98.5651 52.1138 98.8888 52.7996C99.4579 54.0039 99.0393 54.8998 97.7573 55.2148C97.0149 55.3953 96.9724 55.4347 97.463 56.0253C98.3852 57.1312 99.3009 58.2437 100.096 59.4414C100.887 60.6359 101.623 61.8468 101.907 63.3038C102.313 65.3941 100.717 67.0021 98.6436 66.5098C98.3689 66.4442 98.0974 66.4344 97.7606 66.5262L97.7442 66.523ZM69.2006 42.8664C67.7224 43.0206 66.2311 43.0896 64.7726 43.3455C62.7907 43.6934 60.8318 44.1757 58.9873 45.0224C57.3358 45.7804 55.9622 46.8928 55.4619 48.6682C55.2068 49.5739 54.9942 50.0037 54.0131 50.3319C51.9332 51.0309 49.8172 51.7594 48.1003 53.2426C47.2958 53.9383 47.2239 54.4469 48.1297 55.0704C48.8002 55.5331 49.5556 55.8744 50.3601 56.3174C49.5131 56.8523 48.7871 57.397 48.1069 58.0107C47.0702 58.9426 46.0531 59.891 45.278 61.0592C44.7188 61.9058 45.036 62.7295 45.9452 63.0806C46.4946 63.2939 47.0342 63.458 47.6196 63.4679C47.8387 63.4711 48.048 63.5663 48.1363 63.7304C48.2409 63.924 47.9499 63.9404 47.8583 64.0552C47.407 64.6131 46.8936 65.1217 46.3932 65.6369C45.5658 66.4901 44.7678 67.3991 44.1072 68.3836C43.3125 69.5682 42.4034 70.7069 42.0632 72.1573C41.9651 72.5839 42.0992 72.7644 42.4001 72.9941C43.0836 73.5159 43.7933 73.1024 44.4898 73.1024C44.6763 73.1024 44.8986 72.8268 45.0425 73.0762C45.1341 73.2337 45.0949 73.4896 44.9771 73.6865C44.3819 74.6907 44.2773 75.8064 44.3688 76.9254C44.467 78.1396 45.278 79.1043 46.3507 79.3865C47.4986 79.6884 48.5549 79.3373 49.6243 79.1142C51.4688 78.7302 53.1792 77.9624 54.8765 77.1518C55.6058 76.8073 56.0211 76.4857 55.7071 75.6128C55.5861 75.2748 55.6581 74.8646 55.6581 74.4839C55.6581 68.2162 55.6581 61.9485 55.6614 55.6841C55.6614 55.52 55.6614 55.3526 55.6712 55.1886C55.6908 54.8801 55.8936 54.8309 56.1585 54.8145C56.4822 54.7948 56.4953 54.9982 56.5051 55.2181C56.5149 55.4773 56.5149 55.7398 56.5149 55.9991C56.5149 61.9583 56.5149 67.9176 56.5149 73.8769C56.5149 74.9269 56.5803 75.9442 56.9008 76.9812C57.9899 80.5252 60.06 83.2752 63.2093 85.1948C65.8518 86.8061 68.7918 87.5707 71.8202 87.8463C74.8027 88.1187 77.7853 87.9841 80.6239 86.7569C82.9786 85.7363 85.0127 84.3121 86.4811 82.189C88.6821 79.0157 89.588 75.4257 89.7776 71.5995C89.8202 70.7167 89.8136 69.8209 89.9412 68.9382C90.0883 68.085 90.0752 67.2285 89.9412 66.3753C89.9706 64.449 89.5716 62.5457 89.6043 60.6195C89.6141 60.1305 89.5978 59.6449 89.5127 59.1461C89.3427 58.1386 89.2838 57.1115 89.189 56.091C89.1726 55.8974 89.1007 55.6381 89.4637 55.6611C89.7155 55.6742 90.0295 55.6644 90.0425 55.9761C90.0785 56.8589 90.3205 57.7088 90.3467 58.6013C90.3728 59.4874 90.4219 60.3799 90.4677 61.2725C90.5789 63.3989 90.8176 65.5221 90.8569 67.6485C90.8928 69.5846 90.6737 71.5207 90.4742 73.4535C90.2486 75.6358 89.7188 77.7097 88.8096 79.6983C88.6592 80.0264 88.7181 80.3119 89.1203 80.4891C89.9968 80.8764 90.8307 81.3752 91.73 81.7C92.8158 82.0905 93.9016 82.5368 95.0952 82.4974C95.7329 82.4745 96.2954 82.2677 96.3739 81.5655C96.4328 81.0667 96.4426 80.5515 96.2922 80.0264C95.9684 78.9074 95.5792 77.8213 94.984 76.8171C94.9056 76.6826 94.778 76.548 94.85 76.3643C94.8925 76.256 94.9775 76.233 95.0723 76.2789C95.5825 76.5218 96.1516 76.4725 96.6846 76.6137C98.6076 77.1289 100.092 75.9541 99.9321 74.0147C99.7359 71.6881 98.5356 69.7585 97.4041 67.806C96.9234 66.9758 96.351 66.2046 95.7656 65.4204C96.0273 65.3022 96.1973 65.3121 96.3837 65.3908C97.6396 65.9192 98.9052 65.8404 100.181 65.4597C100.652 65.3186 100.988 65.0167 101.044 64.5442C101.113 63.9896 101.119 63.4153 100.903 62.8772C99.9484 60.5046 98.3361 58.5784 96.7337 56.6357C96.2137 56.0057 95.5956 55.4544 94.9939 54.6799C96.0011 54.7324 96.8252 54.6504 97.6134 54.355C98.3492 54.0794 98.4277 53.725 97.9699 53.0621C97.2275 51.9891 96.1058 51.3557 95.056 50.7027C93.6072 49.797 92.1944 48.7994 90.5494 48.2317C89.9804 48.0348 89.9346 47.7034 90.3271 47.2341C90.5789 46.9289 90.8863 46.6533 91.0662 46.312C91.197 46.0593 91.403 45.7378 90.7915 45.5671C89.346 45.1668 87.9626 45.6262 86.5923 45.8231C85.5981 45.9642 84.8721 46.1512 83.9826 45.3899C82.7006 44.2939 80.9902 43.9592 79.3779 43.6409C77.3634 43.2471 75.2998 43.106 73.2558 42.8566C71.9019 42.7187 70.548 42.745 69.1973 42.8763L69.2006 42.8664ZM56.9466 90.1992C56.9466 91.3444 57.4175 92.0729 58.3234 92.319C59.5989 92.6636 60.5734 92.1025 61.4139 91.1639C62.5226 89.9301 63.0098 88.4042 63.4088 86.8586C63.5952 86.1432 62.794 86.0677 62.3852 85.7986C62.0124 85.5525 61.79 85.9069 61.6428 86.2154C61.2602 86.9997 60.871 87.7807 60.5244 88.5781C60.3412 89.0014 60.0665 89.3525 59.6381 89.1097C59.2686 88.8997 59.6054 88.5289 59.7395 88.2532C60.1777 87.3639 60.6225 86.4812 61.0705 85.5985C61.3354 85.0767 61.1032 84.7584 60.665 84.4893C60.3968 84.3252 60.1712 84.2202 59.9422 84.5451C59.3601 85.3753 58.7257 86.1695 58.1861 87.0259C57.5353 88.0563 57.0513 89.1688 56.9433 90.1926L56.9466 90.1992Z" fill="#060403"/>
<path d="M89.9477 68.9415C89.8202 69.8243 89.8267 70.7201 89.7842 71.6029C89.5945 75.4324 88.6886 79.0191 86.4877 82.1923C85.0193 84.3122 82.9851 85.7397 80.6305 86.7602C77.7918 87.9875 74.8125 88.1254 71.8267 87.8497C68.7984 87.5708 65.8583 86.8062 63.2159 85.1982C60.0665 83.2785 57.9964 80.5286 56.9074 76.9846C56.5869 75.9476 56.5215 74.9303 56.5215 73.8802C56.5215 67.921 56.5215 61.9617 56.5215 56.0025C56.5215 55.7432 56.5215 55.4807 56.5117 55.2215C56.5018 55.0016 56.4888 54.7981 56.165 54.8178C55.8968 54.8342 55.6973 54.8835 55.6777 55.1919C55.6679 55.356 55.6679 55.5234 55.6679 55.6874C55.6679 61.9552 55.6646 68.2229 55.6646 74.4873C55.6646 74.8647 55.5927 75.2749 55.7137 75.6162C56.0276 76.489 55.6123 76.8074 54.883 77.1552C53.1857 77.9625 51.4753 78.7303 49.6308 79.1176C48.5614 79.3407 47.5018 79.6918 46.3572 79.3899C45.2813 79.1077 44.4702 78.1429 44.3754 76.9288C44.2871 75.8098 44.3917 74.6941 44.9837 73.6899C45.1014 73.493 45.1439 73.2371 45.0491 73.0795C44.9019 72.8301 44.6828 73.1058 44.4964 73.1058C43.7998 73.1058 43.0901 73.5193 42.4066 72.9975C42.1058 72.7678 41.9684 72.584 42.0698 72.1607C42.4099 70.707 43.3191 69.5716 44.1138 68.387C44.7744 67.4025 45.5756 66.4935 46.3997 65.6403C46.9001 65.1218 47.4135 64.6165 47.8648 64.0586C47.9564 63.9438 48.2475 63.9274 48.1428 63.7337C48.0545 63.5697 47.8452 63.4745 47.6261 63.4712C47.0407 63.4581 46.5011 63.2973 45.9517 63.084C45.0425 62.7329 44.7253 61.9092 45.2845 61.0626C46.0596 59.8911 47.0767 58.946 48.1134 58.014C48.7936 57.4037 49.5196 56.8589 50.3667 56.3208C49.5622 55.8778 48.8067 55.5365 48.1363 55.0738C47.2304 54.4503 47.3024 53.9384 48.1069 53.246C49.8238 51.7627 51.9397 51.0342 54.0196 50.3353C55.0007 50.0071 55.2133 49.574 55.4684 48.6715C55.9655 46.8962 57.3423 45.7838 58.9938 45.0258C60.8416 44.1791 62.7973 43.6967 64.7791 43.3489C66.2377 43.0929 67.7289 43.024 69.2039 42.8698C70.5578 42.8632 71.9117 42.8567 73.2624 42.8501C75.3063 43.0995 77.3699 43.2406 79.3845 43.6344C80.9968 43.9494 82.7071 44.2874 83.9891 45.3834C84.8819 46.1448 85.6047 45.961 86.5989 45.8166C87.9691 45.623 89.3525 45.1636 90.798 45.5606C91.4096 45.7313 91.2035 46.0529 91.0727 46.3055C90.8928 46.6468 90.5854 46.9258 90.3336 47.2277C89.9412 47.6969 89.9869 48.0284 90.556 48.2252C92.201 48.7929 93.6138 49.7905 95.0625 50.6962C96.109 51.3525 97.234 51.9826 97.9764 53.0556C98.4343 53.7185 98.359 54.0729 97.6199 54.3486C96.8318 54.6439 96.0109 54.7227 95.0004 54.6734C95.6021 55.4479 96.2202 55.9992 96.7402 56.6292C98.346 58.5686 99.955 60.4982 100.91 62.8707C101.129 63.4122 101.122 63.9864 101.051 64.5377C100.992 65.0103 100.655 65.3122 100.187 65.4533C98.9117 65.8372 97.6461 65.916 96.3903 65.3844C96.2039 65.3056 96.0338 65.2958 95.7722 65.4139C96.3543 66.1982 96.9266 66.9693 97.4106 67.7996C98.5422 69.7521 99.7424 71.6816 99.9386 74.0082C100.102 75.9476 98.6141 77.1191 96.6912 76.6072C96.1581 76.4661 95.5891 76.5153 95.0789 76.2725C94.984 76.2265 94.899 76.2495 94.8565 76.3578C94.7878 76.5416 94.9121 76.6761 94.9906 76.8106C95.5825 77.8181 95.9717 78.901 96.2987 80.02C96.4492 80.5417 96.4393 81.0602 96.3805 81.559C96.2987 82.2613 95.7362 82.468 95.1018 82.491C93.9081 82.5336 92.8191 82.0873 91.7366 81.6936C90.8405 81.3687 90.0066 80.8699 89.1268 80.4827C88.7246 80.3055 88.6657 80.02 88.8162 79.6918C89.7253 77.7032 90.2584 75.626 90.4808 73.4471C90.6803 71.5143 90.8994 69.5814 90.8634 67.642C90.8242 65.5156 90.5821 63.3925 90.4742 61.266C90.4284 60.3767 90.3761 59.4842 90.3532 58.5949C90.3271 57.7023 90.0851 56.8524 90.0491 55.9696C90.036 55.6579 89.722 55.6678 89.4702 55.6546C89.1072 55.6349 89.1792 55.8942 89.1955 56.0845C89.2871 57.1051 89.3492 58.1322 89.5193 59.1396C89.6043 59.6351 89.6174 60.1241 89.6109 60.613C89.5782 62.5426 89.9771 64.4426 89.9477 66.3688C89.9477 67.222 89.9477 68.0785 89.9477 68.9317V68.9415ZM72.9877 84.0694C75.1788 84.0628 76.9415 83.7215 78.5865 82.783C79.9829 81.9856 80.5814 80.522 80.1236 79.4063C79.7835 78.5761 79.1359 77.9821 78.3641 77.549C77.2457 76.9189 76.0618 76.6072 74.7569 76.4858C72.3859 76.2626 70.1686 76.4595 68.1835 77.9034C67.5851 78.3398 67.0618 78.8813 66.8852 79.5868C66.5876 80.7846 67.3823 82.363 68.5138 82.9044C70.028 83.6297 71.5978 84.1744 72.9877 84.0694ZM78.9037 57.6432C79.9143 57.6498 80.5585 56.9836 80.5618 55.9237C80.5683 54.9064 79.9306 54.2534 78.9266 54.2468C77.8932 54.237 77.1737 54.8999 77.1672 55.8646C77.1606 56.9771 77.8049 57.6367 78.9037 57.6432ZM70.5218 56.032C70.5218 54.8802 69.9201 54.2304 68.867 54.2337C67.9644 54.2337 67.1272 55.0311 67.1272 55.8843C67.1272 56.7966 67.8532 57.6432 68.6414 57.6465C69.8579 57.6465 70.5251 57.0788 70.5218 56.0353V56.032Z" fill="#F0AD4E"/>
<path d="M56.9467 90.1959C57.0546 89.172 57.5386 88.0596 58.1894 87.0292C58.729 86.1727 59.3634 85.3753 59.9456 84.5484C60.1745 84.2235 60.4001 84.3285 60.6683 84.4926C61.1065 84.7584 61.3355 85.08 61.0738 85.6017C60.6258 86.4845 60.181 87.3672 59.7428 88.2565C59.6054 88.5322 59.2686 88.903 59.6414 89.113C60.0698 89.3558 60.3445 89.0047 60.5277 88.5814C60.8743 87.7807 61.2668 86.9997 61.6461 86.2187C61.7966 85.9102 62.0157 85.5558 62.3885 85.8019C62.7973 86.071 63.5985 86.1465 63.4121 86.8619C63.0099 88.4075 62.5226 89.9334 61.4172 91.1672C60.5767 92.1025 59.6022 92.6636 58.3267 92.3223C57.4209 92.0795 56.9499 91.351 56.9499 90.2025L56.9467 90.1959Z" fill="#EE4890"/>
<path d="M72.9877 84.0693C71.5978 84.171 70.0281 83.6263 68.5139 82.9044C67.3824 82.3629 66.5877 80.7845 66.8853 79.5867C67.0619 78.8812 67.5851 78.3397 68.1836 77.9033C70.1687 76.4594 72.386 76.2625 74.757 76.4857C76.0619 76.6071 77.2457 76.9189 78.3642 77.5489C79.136 77.9821 79.7835 78.576 80.1236 79.4062C80.5815 80.5252 79.983 81.9888 78.5866 82.7829C76.9383 83.7215 75.1789 84.0627 72.9877 84.0693Z" fill="#060403"/>
<path d="M78.9037 57.6465C77.8049 57.6399 77.1606 56.9803 77.1672 55.8679C77.1737 54.9031 77.8932 54.2403 78.9266 54.2501C79.9306 54.26 80.5683 54.913 80.5618 55.927C80.5552 56.9869 79.9143 57.6531 78.9037 57.6465Z" fill="#060403"/>
<path d="M70.5218 56.032C70.5218 57.0756 69.858 57.6465 68.6414 57.6433C67.8532 57.6433 67.1239 56.7933 67.1272 55.8811C67.1272 55.0279 67.9677 54.2338 68.867 54.2305C69.9201 54.2305 70.5186 54.8802 70.5218 56.0288V56.032Z" fill="#060403"/>
</g>
<defs>
<clipPath id="clip0_1988_415">
<rect width="144" height="125" fill="white"/>
</clipPath>
</defs>
</svg>
