<svg width="1280" height="87" viewBox="0 0 1280 87" fill="none" xmlns="http://www.w3.org/2000/svg">
<path d="M1636.08 5.35586C1636.08 5.35586 1461.88 -13.4926 1276.08 -0.737932C1230.63 2.38174 1186.99 7.73961 1146.16 14.8528C1100.22 22.8589 979.834 39.6493 874.247 27.4771C867.055 26.6493 859.766 25.9134 852.957 24.8058C828.107 20.7663 749.301 9.64814 640.873 10.817C607.776 11.1735 575.002 13.0744 543.534 16.3819L441.268 27.1206C395.08 31.9726 345.188 31.8691 299.192 26.8332L127.326 8.0192C26.8946 -2.97636 -80.2861 -6.30302 -185.369 -1.45871C-286.448 3.20164 -413.984 13.2505 -533.919 34.5939L-533.919 81.3661L1620.92 109.862L1636.08 5.35586Z" fill="white"/>
</svg>
