<svg width="1280" height="87" viewBox="0 0 1280 87" fill="none" xmlns="http://www.w3.org/2000/svg">
<path d="M1636.08 5.35574C1636.08 5.35574 1461.88 -13.4927 1276.08 -0.738054C1230.63 2.38162 1186.99 7.73949 1146.16 14.8527C1100.22 22.8588 979.834 39.6491 874.247 27.477C867.055 26.6492 859.766 25.9133 852.957 24.8057C828.107 20.7662 749.301 9.64802 640.873 10.8169C607.776 11.1733 575.002 13.0743 543.534 16.3818L441.268 27.1205C395.08 31.9725 345.188 31.869 299.192 26.833L127.326 8.01908C26.8946 -2.97648 -80.2861 -6.30314 -185.369 -1.45883C-286.448 3.20151 -413.984 13.2504 -533.919 34.5938L-533.919 81.366L1620.92 109.862L1636.08 5.35574Z" fill="#E0EDF5"/>
</svg>
