<svg width="1280" height="94" viewBox="0 0 1280 94" fill="none" xmlns="http://www.w3.org/2000/svg">
<path d="M-774.789 89.2382C-774.789 89.2382 -600.52 107.466 -414.771 94.0491C-369.326 90.7675 -325.711 85.2541 -284.907 77.9955C-238.999 69.8257 -118.669 52.6065 -13.0395 64.4023C-5.84401 65.2045 1.44696 65.9144 8.25982 66.9977C33.1243 70.9486 111.97 81.7859 220.392 80.2306C253.488 79.7563 286.255 77.7386 317.711 74.319L419.938 63.2159C466.108 58.1993 516 58.125 562.014 62.9971L733.946 81.1984C834.416 91.836 941.608 94.7808 1046.67 89.562C1147.73 84.5415 1275.23 74.0382 1395.09 52.2676L1394.93 5.49565L-759.999 -15.3216L-774.789 89.2382Z" fill="#E0EDF5"/>
</svg>
