<svg width="1280" height="76" viewBox="0 0 1280 76" fill="none" xmlns="http://www.w3.org/2000/svg">
<path d="M-892 11.6812C-892 11.6812 -699.012 -9.01101 -493.181 4.99137C-442.823 8.41623 -394.483 14.2982 -349.25 22.1072C-298.361 30.8966 -164.987 49.3294 -48.0149 35.9666C-40.0468 35.0578 -31.9725 34.2499 -24.4293 33.034C3.10065 28.5994 90.4049 16.3936 210.525 17.6769C247.191 18.0682 283.499 20.155 318.36 23.7861L431.654 35.5753C482.822 40.902 538.094 40.7884 589.051 35.2598L779.449 14.6055C890.711 2.53434 1009.45 -1.11771 1125.86 4.20051C1237.84 9.31677 1379.13 20.3487 1512 43.7799L1512 95.1275L-892 95.1273L-892 11.6812Z" fill="#E7F5E0"/>
</svg>
