<svg width="1280" height="83" viewBox="0 0 1280 83" fill="none" xmlns="http://www.w3.org/2000/svg">
<path d="M2021 69.7351C2021 69.7351 1849.85 92.1699 1667.31 76.9883C1622.64 73.275 1579.77 66.8977 1539.66 58.4311C1494.53 48.9016 1376.24 28.9165 1272.51 43.4046C1265.44 44.39 1258.28 45.2658 1251.59 46.5842C1227.18 51.3923 1149.75 64.626 1043.22 63.2346C1010.7 62.8104 978.502 60.5477 947.586 56.6109L847.111 43.8289C801.732 38.0537 752.713 38.1769 707.522 44.171L538.666 66.5647C439.993 79.6524 334.689 83.612 231.447 77.8459C132.138 72.2988 6.83533 60.3379 -111 34.9334V-20.7383L2021 -20.7383V69.7351Z" fill="#E7F5E0"/>
</svg>
