<svg width="1280" height="105" viewBox="0 0 1280 105" fill="none" xmlns="http://www.w3.org/2000/svg">
<g filter="url(#filter0_d_1988_405)">
<path fill-rule="evenodd" clip-rule="evenodd" d="M-35.0001 -19H1307L1307 52L1307 64V89.1131C1307 89.1131 1386.72 92.7627 1295.75 89.1131C1273.49 88.2205 1252.13 86.732 1232.14 84.7779C1209.66 82.5787 1150.72 77.9352 1099 81.0516C1098.59 81.076 1098.19 81.1 1097.78 81.1238L1096.94 81.1734L1096.94 81.1735C1094.09 81.3402 1091.25 81.5067 1088.57 81.738C1086.86 81.885 1085.02 82.0661 1082.97 82.2676L1082.97 82.2679C1070.43 83.5024 1050.13 85.5023 1004.48 85.113C988.276 84.9749 952.431 84.5134 937.025 83.5886L886.957 80.586C864.344 79.2294 839.91 79.1924 817.378 80.4788L733.188 85.2845C712.151 86.4855 690.512 87.3101 668.609 87.7488L668.662 87.9508C668.662 87.9508 583.326 92.7627 492.354 89.1131C470.097 88.2204 448.735 86.7319 428.749 84.7779C406.263 82.5787 347.326 77.9352 295.603 81.0516C294.917 81.0928 294.23 81.1331 293.544 81.1734C290.699 81.3402 287.86 81.5066 285.173 81.738C283.464 81.885 281.624 82.0662 279.576 82.2679C267.041 83.5024 246.733 85.5023 201.089 85.113C184.881 84.9749 149.037 84.5134 133.631 83.5886L83.5625 80.586C60.9494 79.2294 36.5159 79.1924 13.984 80.4788L-37 85.113L-37 60H-35.0001V-19Z" fill="white"/>
</g>
<defs>
<filter id="filter0_d_1988_405" x="-47" y="-25" width="1396.32" height="129.735" filterUnits="userSpaceOnUse" color-interpolation-filters="sRGB">
<feFlood flood-opacity="0" result="BackgroundImageFix"/>
<feColorMatrix in="SourceAlpha" type="matrix" values="0 0 0 0 0 0 0 0 0 0 0 0 0 0 0 0 0 0 127 0" result="hardAlpha"/>
<feOffset dy="4"/>
<feGaussianBlur stdDeviation="5"/>
<feComposite in2="hardAlpha" operator="out"/>
<feColorMatrix type="matrix" values="0 0 0 0 0 0 0 0 0 0 0 0 0 0 0 0 0 0 0.1 0"/>
<feBlend mode="normal" in2="BackgroundImageFix" result="effect1_dropShadow_1988_405"/>
<feBlend mode="normal" in="SourceGraphic" in2="effect1_dropShadow_1988_405" result="shape"/>
</filter>
</defs>
</svg>
