<svg width="1036" height="1092" viewBox="0 0 1036 1092" fill="none" preserveAspectRatio="none" xmlns="http://www.w3.org/2000/svg">
<path d="M0.116754 465.336C1.55192 594.479 3.88126 723.91 12.2337 852.853C12.516 857.182 13.8806 866.986 14.21 871.372C17.5039 913.741 22.492 957.372 39.9732 994.696C40.7026 996.273 41.173 997.964 41.5966 999.713C41.8554 1000.77 42.2553 1001.78 42.7024 1002.78C44.0435 1005.79 45.6669 1008.6 47.5727 1011.09C101.946 1082.5 190.835 1084.94 266.077 1091.27C266.383 1091.27 266.689 1091.3 266.995 1091.33C368.612 1093.25 470.018 1091.42 571.259 1080.75C683.088 1067.8 798.281 1083.05 907.733 1052.72C1057.18 1009 1025.14 870.426 1029.54 724.139C1030.38 637.795 1035.94 551.766 1034.53 465.278C1034.43 390.057 1039.58 313.832 1031.16 239.356C1001.94 1.53637 822.491 18.9657 668.877 9.87839C548.437 1.79427 427.809 -4.25433 307.181 3.80108C306.687 3.82977 306.169 3.82977 305.675 3.80108C176.224 -3.13631 37.9734 26.7917 9.73982 207.851L9.57503 209.772C0.328439 294.195 -0.377379 380.109 0.116754 465.307L0.116754 465.336Z" fill="#E0EDF5"/>
</svg>
